<?xml version="1.0" encoding="UTF-8" standalone="no"?>
<!-- Created with Inkscape (http://www.inkscape.org/) -->

<svg
   xmlns:dc="http://purl.org/dc/elements/1.1/"
   xmlns:cc="http://creativecommons.org/ns#"
   xmlns:rdf="http://www.w3.org/1999/02/22-rdf-syntax-ns#"
   xmlns:svg="http://www.w3.org/2000/svg"
   xmlns="http://www.w3.org/2000/svg"
   xmlns:sodipodi="http://sodipodi.sourceforge.net/DTD/sodipodi-0.dtd"
   xmlns:inkscape="http://www.inkscape.org/namespaces/inkscape"
   width="256"
   height="256"
   id="svg6327"
   version="1.1"
   inkscape:version="0.48.4 r9939"
   sodipodi:docname="New document 13">
  <defs
     id="defs6329">
    <clipPath
       clipPathUnits="userSpaceOnUse"
       id="clipPath6197">
      <rect
         y="808.93884"
         x="536.50958"
         height="62.5"
         width="62.5"
         id="rect6199"
         style="opacity:0.91666667;fill:#00ff6d;fill-opacity:1;fill-rule:evenodd;stroke:none" />
    </clipPath>
  </defs>
  <sodipodi:namedview
     id="base"
     pagecolor="#ffffff"
     bordercolor="#666666"
     borderopacity="1.0"
     inkscape:pageopacity="0.0"
     inkscape:pageshadow="2"
     inkscape:zoom="0.35"
     inkscape:cx="-371.28566"
     inkscape:cy="-71.999983"
     inkscape:document-units="px"
     inkscape:current-layer="layer1"
     showgrid="false"
     fit-margin-top="0"
     fit-margin-left="0"
     fit-margin-right="0"
     fit-margin-bottom="0"
     inkscape:window-width="1857"
     inkscape:window-height="1058"
     inkscape:window-x="55"
     inkscape:window-y="-8"
     inkscape:window-maximized="1" />
  <metadata
     id="metadata6332">
    <rdf:RDF>
      <cc:Work
         rdf:about="">
        <dc:format>image/svg+xml</dc:format>
        <dc:type
           rdf:resource="http://purl.org/dc/dcmitype/StillImage" />
        <dc:title></dc:title>
      </cc:Work>
    </rdf:RDF>
  </metadata>
  <g
     inkscape:label="Layer 1"
     inkscape:groupmode="layer"
     id="layer1"
     transform="translate(-271.99995,-204.3622)">
    <g
       transform="matrix(4.096,0,0,4.096,-1925.5433,-3109.0513)"
       id="g6082"
       clip-path="url(#clipPath6197)">
      <g
         id="g5741"
         inkscape:label="ink_ext_XXXXXX"
         transform="matrix(1.25,0,0,-1.25,536.5084,871.441)">
        <g
           id="g5743"
           transform="scale(0.1,0.1)">
          <path
             inkscape:connector-curvature="0"
             d="M 0,0 500,0 500,500 0,500 0,0 z"
             style="fill:#231f20;fill-opacity:1;fill-rule:nonzero;stroke:none"
             id="path5745" />
          <path
             inkscape:connector-curvature="0"
             d="m -3.28125,395.211 -32.50005,43.133 11.375,8.586 32.51177,-43.145 -11.38672,-8.574"
             style="fill:#4f4c4c;fill-opacity:1;fill-rule:nonzero;stroke:none"
             id="path5747" />
          <path
             inkscape:connector-curvature="0"
             d="m 21.25,452.691 c 3.6602,2.762 4.793,4.649 1.1719,9.454 -3.086,4.082 -4.7735,4.218 -9.0547,1.003 L 21.25,452.691 z m 7.7734,-33.144 -32.51168,43.144 12.80469,9.649 c 9.21879,6.941 16.37889,7.441 23.93749,-2.59 7.5195,-9.969 6.4649,-15.762 -3.9687,-23.621 l -1.9688,-1.484 12.6719,-16.817 -10.9649,-8.281"
             style="fill:#4f4c4c;fill-opacity:1;fill-rule:nonzero;stroke:none"
             id="path5749" />
          <path
             inkscape:connector-curvature="0"
             d="m 59.2266,442.32 -32.5078,43.125 24.6679,18.594 6.6992,-8.898 -13.2812,-10.008 5.5195,-7.324 10.9727,8.269 6.9844,-9.246 -10.9766,-8.281 6.3281,-8.41 13.9649,10.519 6.9726,-9.25 -25.3437,-19.09"
             style="fill:#4f4c4c;fill-opacity:1;fill-rule:nonzero;stroke:none"
             id="path5751" />
          <path
             inkscape:connector-curvature="0"
             d="m 90.8086,484.391 c 1.9453,-2.59 3.9375,-2.696 5.707,-1.368 1.7578,1.329 2.2071,3.27 0.2617,5.86 l -3.2109,4.265 -2.8516,-2.136 -6.0664,8.047 14.2305,10.722 18.0621,-23.976 -5.828,-4.383 -3.347,1.043 c -0.832,-3.828 -2.676,-6.727 -6.067,-9.285 -11.3162,-8.516 -17.4724,-4.864 -30.2849,12.136 -12.2618,16.282 -12.8594,25.247 -1.8828,33.528 6.0937,4.59 13.3007,6.445 19.3359,2.519 1.8867,-1.23 3.7226,-3.234 6.3476,-6.718 l -11.3867,-8.575 -1.9062,2.52 c -1.9414,2.578 -3.9336,2.676 -5.6914,1.348 -1.7657,-1.329 -2.2149,-3.262 -0.2735,-5.84 l 14.8516,-19.707"
             style="fill:#4f4c4c;fill-opacity:1;fill-rule:nonzero;stroke:none"
             id="path5753" />
          <path
             inkscape:connector-curvature="0"
             d="m 123.563,490.797 -32.5083,43.133 11.3863,8.574 32.5,-43.133 -11.378,-8.574"
             style="fill:#4f4c4c;fill-opacity:1;fill-rule:nonzero;stroke:none"
             id="path5755" />
          <path
             inkscape:connector-curvature="0"
             d="m 1.75781,346.598 c 3.66016,2.761 4.79297,4.648 1.17188,9.453 -3.074221,4.082 -4.77344,4.219 -9.04297,1.004 l 7.87109,-10.457 z m 7.77344,-33.145 -32.50785,43.145 12.8008,9.648 c 9.218769,6.953 16.37502,7.442 23.9453,-2.59 7.5118,-9.968 6.4532,-15.761 -3.98434,-23.621 L 7.82422,338.551 20.4961,321.734 9.53125,313.453"
             style="fill:#4f4c4c;fill-opacity:1;fill-rule:nonzero;stroke:none"
             id="path5757" />
          <path
             inkscape:connector-curvature="0"
             d="m 39.7344,336.227 -32.50784,43.132 24.66014,18.586 6.6992,-8.886 -13.2734,-10.012 5.5273,-7.332 10.9766,8.269 6.9727,-9.246 -10.9766,-8.281 6.3281,-8.41 13.9532,10.519 6.9765,-9.25 -25.3359,-19.089"
             style="fill:#4f4c4c;fill-opacity:1;fill-rule:nonzero;stroke:none"
             id="path5759" />
          <path
             inkscape:connector-curvature="0"
             d="m 71.3203,378.297 c 1.9531,-2.578 3.9336,-2.695 5.7031,-1.367 1.7579,1.328 2.2032,3.281 0.2618,5.859 l -3.2227,4.266 -2.8437,-2.137 -6.0625,8.047 14.2304,10.723 18.0664,-23.977 -5.832,-4.383 -3.3477,1.043 c -0.832,-3.816 -2.6757,-6.726 -6.0664,-9.285 -11.3164,-8.516 -17.4726,-4.863 -30.2851,12.137 -12.2656,16.281 -12.8594,25.246 -1.8828,33.527 6.0937,4.59 13.3007,6.445 19.3476,2.52 1.875,-1.231 3.7071,-3.235 6.336,-6.719 l -11.3868,-8.574 -1.9062,2.519 c -1.9414,2.578 -3.9219,2.684 -5.6914,1.356 -1.7578,-1.329 -2.2149,-3.27 -0.2656,-5.848 l 14.8476,-19.707"
             style="fill:#4f4c4c;fill-opacity:1;fill-rule:nonzero;stroke:none"
             id="path5761" />
          <path
             inkscape:connector-curvature="0"
             d="m 104.07,384.703 -32.5075,43.145 11.3867,8.574 32.4998,-43.145 -11.379,-8.574"
             style="fill:#4f4c4c;fill-opacity:1;fill-rule:nonzero;stroke:none"
             id="path5763" />
          <path
             inkscape:connector-curvature="0"
             d="m 128.605,442.184 c 3.661,2.754 4.786,4.648 1.161,9.453 -3.078,4.082 -4.766,4.218 -9.036,1.004 l 7.875,-10.457 z m 7.762,-33.145 -32.5,43.145 12.805,9.648 c 9.219,6.941 16.375,7.441 23.941,-2.598 7.512,-9.972 6.457,-15.761 -3.98,-23.625 l -1.965,-1.472 12.676,-16.817 -10.977,-8.281"
             style="fill:#4f4c4c;fill-opacity:1;fill-rule:nonzero;stroke:none"
             id="path5765" />
          <path
             inkscape:connector-curvature="0"
             d="m 166.57,431.801 -32.5,43.137 24.66,18.593 6.7,-8.898 -13.282,-10.008 5.528,-7.324 10.976,8.262 6.973,-9.25 -10.977,-8.27 6.336,-8.41 13.957,10.519 6.973,-9.257 -25.344,-19.094"
             style="fill:#4f4c4c;fill-opacity:1;fill-rule:nonzero;stroke:none"
             id="path5767" />
          <path
             inkscape:connector-curvature="0"
             d="m 198.164,473.883 c 1.953,-2.59 3.938,-2.695 5.691,-1.367 1.77,1.328 2.219,3.269 0.278,5.859 l -3.227,4.266 -2.84,-2.149 -6.062,8.047 14.226,10.723 18.055,-23.973 -5.828,-4.387 -3.34,1.055 c -0.832,-3.828 -2.683,-6.727 -6.074,-9.285 -11.309,-8.527 -17.461,-4.863 -30.273,12.129 -12.266,16.289 -12.872,25.254 -1.895,33.523 6.105,4.602 13.313,6.446 19.348,2.52 1.882,-1.219 3.711,-3.231 6.336,-6.707 l -11.375,-8.586 -1.907,2.531 c -1.941,2.578 -3.933,2.676 -5.691,1.348 -1.762,-1.321 -2.219,-3.262 -0.266,-5.84 l 14.844,-19.707"
             style="fill:#4f4c4c;fill-opacity:1;fill-rule:nonzero;stroke:none"
             id="path5769" />
          <path
             inkscape:connector-curvature="0"
             d="m 230.918,480.289 -32.512,43.145 11.391,8.574 32.5,-43.145 -11.379,-8.574"
             style="fill:#4f4c4c;fill-opacity:1;fill-rule:nonzero;stroke:none"
             id="path5771" />
          <path
             inkscape:connector-curvature="0"
             d="m -17.7344,240.508 c 3.6602,2.762 4.793,4.648 1.1719,9.453 -3.0781,4.094 -4.7773,4.219 -9.043,1.008 l 7.8711,-10.461 z m 7.77346,-33.145 -32.50786,43.145 12.8008,9.648 c 9.2188,6.953 16.3789,7.442 23.94534,-2.59 7.51172,-9.968 6.457035,-15.757 -3.98437,-23.621 L -11.668,232.461 1.01563,215.645 -9.96094,207.363"
             style="fill:#4f4c4c;fill-opacity:1;fill-rule:nonzero;stroke:none"
             id="path5773" />
          <path
             inkscape:connector-curvature="0"
             d="m 20.2422,230.137 -32.5078,43.133 24.6601,18.585 6.6993,-8.886 -13.27349,-10.008 5.52739,-7.336 10.9765,8.281 6.9727,-9.258 -10.9766,-8.281 6.336,-8.398 13.957,10.515 6.9726,-9.254 -25.3437,-19.093"
             style="fill:#4f4c4c;fill-opacity:1;fill-rule:nonzero;stroke:none"
             id="path5775" />
          <path
             inkscape:connector-curvature="0"
             d="m 51.8281,272.207 c 1.9532,-2.578 3.9336,-2.687 5.6914,-1.355 1.7657,1.328 2.2149,3.269 0.2735,5.847 l -3.2227,4.27 -2.8437,-2.141 -6.0625,8.047 14.2304,10.723 18.0664,-23.977 -5.832,-4.383 -3.3398,1.055 c -0.8399,-3.828 -2.6875,-6.738 -6.0743,-9.285 -11.3164,-8.528 -17.4726,-4.875 -30.2851,12.129 -12.2656,16.277 -12.8594,25.254 -1.8945,33.519 6.1054,4.59 13.3125,6.446 19.3593,2.52 1.875,-1.223 3.7071,-3.235 6.336,-6.719 l -11.3867,-8.57 -1.9024,2.519 c -1.9453,2.586 -3.9375,2.688 -5.6953,1.36 -1.7695,-1.328 -2.2148,-3.262 -0.2656,-5.852 l 14.8476,-19.707"
             style="fill:#4f4c4c;fill-opacity:1;fill-rule:nonzero;stroke:none"
             id="path5777" />
          <path
             inkscape:connector-curvature="0"
             d="m 84.5898,278.613 -32.5078,43.141 11.375,8.574 32.5118,-43.14 -11.379,-8.575"
             style="fill:#4f4c4c;fill-opacity:1;fill-rule:nonzero;stroke:none"
             id="path5779" />
          <path
             inkscape:connector-curvature="0"
             d="m 109.109,336.09 c 3.664,2.762 4.797,4.648 1.172,9.453 -3.074,4.09 -4.773,4.219 -9.043,1.004 l 7.871,-10.457 z m 7.778,-33.145 -32.512,43.145 12.8008,9.648 c 9.2192,6.953 16.3792,7.442 23.9452,-2.59 7.512,-9.968 6.457,-15.761 -3.973,-23.621 l -1.972,-1.484 12.683,-16.816 -10.972,-8.282"
             style="fill:#4f4c4c;fill-opacity:1;fill-rule:nonzero;stroke:none"
             id="path5781" />
          <path
             inkscape:connector-curvature="0"
             d="m 147.09,325.719 -32.512,43.133 24.668,18.586 6.699,-8.887 -13.281,-10.012 5.527,-7.332 10.981,8.281 6.973,-9.258 -10.981,-8.281 6.34,-8.398 13.957,10.515 6.973,-9.257 -25.344,-19.09"
             style="fill:#4f4c4c;fill-opacity:1;fill-rule:nonzero;stroke:none"
             id="path5783" />
          <path
             inkscape:connector-curvature="0"
             d="m 178.672,367.789 c 1.953,-2.578 3.933,-2.687 5.703,-1.359 1.758,1.328 2.219,3.273 0.266,5.851 l -3.215,4.266 -2.852,-2.137 -6.062,8.047 14.226,10.723 18.067,-23.977 -5.821,-4.383 -3.347,1.055 c -0.84,-3.828 -2.688,-6.738 -6.074,-9.289 -11.321,-8.523 -17.473,-4.871 -30.286,12.129 -12.265,16.281 -12.863,25.254 -1.882,33.527 6.089,4.59 13.296,6.446 19.343,2.52 1.875,-1.223 3.711,-3.235 6.336,-6.719 l -11.386,-8.574 -1.891,2.519 c -1.953,2.586 -3.938,2.684 -5.703,1.356 -1.758,-1.328 -2.219,-3.262 -0.266,-5.848 l 14.844,-19.707"
             style="fill:#4f4c4c;fill-opacity:1;fill-rule:nonzero;stroke:none"
             id="path5785" />
          <path
             inkscape:connector-curvature="0"
             d="m 211.426,374.195 -32.512,43.145 11.391,8.574 32.508,-43.144 -11.387,-8.575"
             style="fill:#4f4c4c;fill-opacity:1;fill-rule:nonzero;stroke:none"
             id="path5787" />
          <path
             inkscape:connector-curvature="0"
             d="m 235.945,431.676 c 3.672,2.754 4.785,4.648 1.172,9.453 -3.074,4.082 -4.762,4.219 -9.031,1.004 l 7.859,-10.457 z m 7.778,-33.145 -32.5,43.145 12.8,9.648 c 9.219,6.942 16.375,7.442 23.938,-2.597 7.519,-9.973 6.465,-15.754 -3.984,-23.614 l -1.957,-1.484 12.675,-16.816 -10.972,-8.282"
             style="fill:#4f4c4c;fill-opacity:1;fill-rule:nonzero;stroke:none"
             id="path5789" />
          <path
             inkscape:connector-curvature="0"
             d="m 273.938,421.293 -32.524,43.137 24.672,18.593 6.695,-8.898 -13.277,-10.008 5.523,-7.324 10.981,8.27 6.972,-9.258 -10.976,-8.27 6.348,-8.398 13.945,10.508 6.973,-9.258 -25.332,-19.094"
             style="fill:#4f4c4c;fill-opacity:1;fill-rule:nonzero;stroke:none"
             id="path5791" />
          <path
             inkscape:connector-curvature="0"
             d="m 305.52,463.375 c 1.953,-2.59 3.921,-2.687 5.679,-1.367 1.781,1.328 2.231,3.269 0.278,5.859 l -3.223,4.266 -2.832,-2.149 -6.074,8.059 14.238,10.723 18.062,-23.985 -5.835,-4.386 -3.34,1.066 c -0.84,-3.84 -2.676,-6.738 -6.078,-9.289 -11.305,-8.524 -17.457,-4.871 -30.274,12.129 -12.266,16.281 -12.867,25.246 -1.891,33.527 6.09,4.59 13.297,6.445 19.333,2.52 1.898,-1.231 3.71,-3.243 6.347,-6.719 l -11.387,-8.586 -1.89,2.531 c -1.953,2.586 -3.945,2.676 -5.703,1.348 -1.758,-1.32 -2.207,-3.262 -0.254,-5.84 l 14.844,-19.707"
             style="fill:#4f4c4c;fill-opacity:1;fill-rule:nonzero;stroke:none"
             id="path5793" />
          <path
             inkscape:connector-curvature="0"
             d="m 338.27,469.781 -32.516,43.145 11.387,8.574 32.515,-43.145 -11.386,-8.574"
             style="fill:#4f4c4c;fill-opacity:1;fill-rule:nonzero;stroke:none"
             id="path5795" />
          <path
             inkscape:connector-curvature="0"
             d="m 362.805,527.262 c 3.648,2.754 4.785,4.648 1.172,9.453 -3.086,4.082 -4.789,4.219 -9.043,1.004 l 7.871,-10.457 z m 7.769,-33.145 -32.515,43.145 12.808,9.648 c 9.223,6.942 16.367,7.442 23.946,-2.597 7.5,-9.973 6.449,-15.754 -3.985,-23.614 l -1.973,-1.484 12.7,-16.828 -10.981,-8.27"
             style="fill:#4f4c4c;fill-opacity:1;fill-rule:nonzero;stroke:none"
             id="path5797" />
          <path
             inkscape:connector-curvature="0"
             d="m 0.75,124.043 -32.4961,43.137 24.65626,18.582 6.699215,-8.887 -13.281275,-10.012 5.52737,-7.332 10.97656,8.274 6.97266,-9.25 -10.97657,-8.282 6.33985,-8.41 13.95313,10.52 6.9727,-9.246 L 0.75,124.043"
             style="fill:#4f4c4c;fill-opacity:1;fill-rule:nonzero;stroke:none"
             id="path5799" />
          <path
             inkscape:connector-curvature="0"
             d="m 32.3438,166.113 c 1.9414,-2.578 3.9257,-2.695 5.6914,-1.367 1.7578,1.328 2.2187,3.281 0.2656,5.859 l -3.211,4.266 -2.8554,-2.137 -6.0625,8.047 14.2383,10.723 18.0586,-23.977 -5.8321,-4.382 -3.3398,1.043 c -0.8399,-3.829 -2.6875,-6.727 -6.0742,-9.286 -11.3086,-8.515 -17.461,-4.863 -30.2735,12.141 -12.277325,16.277 -12.871075,25.242 -1.8945,33.523 6.0937,4.59 13.3008,6.446 19.3476,2.52 1.8829,-1.231 3.7071,-3.231 6.336,-6.719 l -11.3867,-8.574 -1.8946,2.52 c -1.9531,2.578 -3.9336,2.683 -5.7031,1.359 -1.7578,-1.328 -2.207,-3.274 -0.2656,-5.852 l 14.8555,-19.707"
             style="fill:#4f4c4c;fill-opacity:1;fill-rule:nonzero;stroke:none"
             id="path5801" />
          <path
             inkscape:connector-curvature="0"
             d="m 65.0898,172.52 -32.5,43.144 11.3829,8.574 32.5,-43.144 -11.3829,-8.574"
             style="fill:#4f4c4c;fill-opacity:1;fill-rule:nonzero;stroke:none"
             id="path5803" />
          <path
             inkscape:connector-curvature="0"
             d="m 89.6289,230 c 3.6602,2.766 4.7852,4.648 1.1602,9.453 -3.0743,4.082 -4.7735,4.219 -9.043,1.008 L 89.6289,230 z m 7.7656,-33.145 -32.5,43.145 12.8008,9.648 c 9.211,6.954 16.3789,7.442 23.9377,-2.585 7.515,-9.973 6.465,-15.762 -3.9767,-23.625 l -1.961,-1.485 12.6717,-16.816 -10.9725,-8.282"
             style="fill:#4f4c4c;fill-opacity:1;fill-rule:nonzero;stroke:none"
             id="path5805" />
          <path
             inkscape:connector-curvature="0"
             d="m 127.598,219.629 -32.5003,43.137 24.6603,18.582 6.695,-8.887 -13.277,-10.012 5.523,-7.332 10.981,8.274 6.968,-9.25 -10.972,-8.282 6.336,-8.41 13.957,10.52 6.969,-9.246 -25.34,-19.094"
             style="fill:#4f4c4c;fill-opacity:1;fill-rule:nonzero;stroke:none"
             id="path5807" />
          <path
             inkscape:connector-curvature="0"
             d="m 159.188,261.699 c 1.945,-2.578 3.937,-2.695 5.695,-1.367 1.765,1.328 2.219,3.281 0.262,5.859 l -3.211,4.27 -2.852,-2.141 -6.062,8.047 14.238,10.723 18.055,-23.977 -5.821,-4.383 -3.347,1.043 c -0.84,-3.828 -2.688,-6.726 -6.079,-9.285 -11.304,-8.515 -17.461,-4.863 -30.269,12.141 -12.277,16.277 -12.871,25.242 -1.899,33.523 6.106,4.59 13.301,6.442 19.348,2.52 1.887,-1.231 3.711,-3.234 6.34,-6.719 l -11.391,-8.574 -1.89,2.519 c -1.953,2.579 -3.938,2.688 -5.696,1.36 -1.765,-1.328 -2.214,-3.274 -0.273,-5.852 l 14.852,-19.707"
             style="fill:#4f4c4c;fill-opacity:1;fill-rule:nonzero;stroke:none"
             id="path5809" />
          <path
             inkscape:connector-curvature="0"
             d="m 191.934,268.105 -32.5,43.141 11.379,8.574 32.507,-43.14 -11.386,-8.575"
             style="fill:#4f4c4c;fill-opacity:1;fill-rule:nonzero;stroke:none"
             id="path5811" />
          <path
             inkscape:connector-curvature="0"
             d="m 216.477,325.582 c 3.652,2.754 4.785,4.648 1.16,9.453 -3.074,4.082 -4.778,4.219 -9.043,1.004 l 7.883,-10.457 z m 7.761,-33.141 -32.508,43.141 12.809,9.648 c 9.211,6.942 16.379,7.442 23.938,-2.597 7.507,-9.973 6.457,-15.762 -3.973,-23.625 l -1.965,-1.473 12.664,-16.812 -10.965,-8.282"
             style="fill:#4f4c4c;fill-opacity:1;fill-rule:nonzero;stroke:none"
             id="path5813" />
          <path
             inkscape:connector-curvature="0"
             d="m 254.441,315.199 -32.507,43.137 24.66,18.594 6.695,-8.899 -13.277,-10.008 5.523,-7.324 10.981,8.262 6.968,-9.25 -10.972,-8.27 6.328,-8.41 13.965,10.52 6.968,-9.258 -25.332,-19.094"
             style="fill:#4f4c4c;fill-opacity:1;fill-rule:nonzero;stroke:none"
             id="path5815" />
          <path
             inkscape:connector-curvature="0"
             d="m 286.023,357.281 c 1.957,-2.59 3.95,-2.695 5.707,-1.367 1.754,1.328 2.208,3.27 0.25,5.859 l -3.203,4.266 -2.847,-2.148 -6.075,8.047 14.239,10.722 18.062,-23.972 -5.84,-4.387 -3.336,1.054 c -0.839,-3.828 -2.675,-6.726 -6.078,-9.285 -11.304,-8.527 -17.461,-4.863 -30.269,12.129 -12.27,16.289 -12.871,25.254 -1.899,33.524 6.094,4.601 13.301,6.445 19.36,2.519 1.875,-1.219 3.711,-3.23 6.328,-6.707 l -11.391,-8.586 -1.89,2.531 c -1.953,2.579 -3.926,2.676 -5.703,1.348 -1.758,-1.32 -2.208,-3.262 -0.254,-5.84 l 14.839,-19.707"
             style="fill:#4f4c4c;fill-opacity:1;fill-rule:nonzero;stroke:none"
             id="path5817" />
          <path
             inkscape:connector-curvature="0"
             d="m 318.777,363.688 -32.5,43.144 11.368,8.574 32.523,-43.144 -11.391,-8.574"
             style="fill:#4f4c4c;fill-opacity:1;fill-rule:nonzero;stroke:none"
             id="path5819" />
          <path
             inkscape:connector-curvature="0"
             d="m 343.313,421.168 c 3.652,2.754 4.785,4.648 1.167,9.453 -3.085,4.082 -4.785,4.219 -9.042,1.004 l 7.875,-10.457 z m 7.773,-33.145 -32.523,43.145 12.816,9.648 c 9.219,6.942 16.387,7.442 23.941,-2.597 7.524,-9.973 6.45,-15.762 -3.98,-23.625 l -1.953,-1.473 12.676,-16.816 -10.977,-8.282"
             style="fill:#4f4c4c;fill-opacity:1;fill-rule:nonzero;stroke:none"
             id="path5821" />
          <path
             inkscape:connector-curvature="0"
             d="m 381.277,410.785 -32.5,43.137 24.668,18.594 6.7,-8.899 -13.282,-10.008 5.532,-7.324 10.972,8.262 6.977,-9.25 -10.981,-8.27 6.328,-8.41 13.965,10.52 6.977,-9.258 -25.356,-19.094"
             style="fill:#4f4c4c;fill-opacity:1;fill-rule:nonzero;stroke:none"
             id="path5823" />
          <path
             inkscape:connector-curvature="0"
             d="m 412.883,452.867 c 1.93,-2.59 3.926,-2.695 5.68,-1.367 1.757,1.328 2.23,3.27 0.277,5.859 l -3.227,4.266 -2.847,-2.148 -6.055,8.046 14.219,10.723 18.062,-23.973 -5.816,-4.386 -3.34,1.054 c -0.844,-3.828 -2.695,-6.726 -6.074,-9.285 -11.313,-8.527 -17.461,-4.863 -30.278,12.129 -12.285,16.289 -12.871,25.254 -1.89,33.524 6.094,4.601 13.301,6.445 19.336,2.519 1.89,-1.219 3.711,-3.23 6.343,-6.707 l -11.382,-8.586 -1.899,2.531 c -1.949,2.579 -3.941,2.676 -5.699,1.348 -1.762,-1.32 -2.207,-3.262 -0.273,-5.84 l 14.863,-19.707"
             style="fill:#4f4c4c;fill-opacity:1;fill-rule:nonzero;stroke:none"
             id="path5825" />
          <path
             inkscape:connector-curvature="0"
             d="m 445.613,459.273 -32.5,43.133 11.391,8.586 32.5,-43.144 -11.391,-8.575"
             style="fill:#4f4c4c;fill-opacity:1;fill-rule:nonzero;stroke:none"
             id="path5827" />
          <path
             inkscape:connector-curvature="0"
             d="m 470.145,516.754 c 3.671,2.754 4.804,4.637 1.171,9.441 -3.062,4.094 -4.761,4.231 -9.043,1.008 l 7.872,-10.449 z m 7.777,-33.145 -32.5,43.145 12.793,9.648 c 9.219,6.934 16.387,7.442 23.941,-2.597 7.524,-9.973 6.465,-15.762 -3.98,-23.625 l -1.953,-1.485 12.672,-16.816 -10.973,-8.27"
             style="fill:#4f4c4c;fill-opacity:1;fill-rule:nonzero;stroke:none"
             id="path5829" />
          <path
             inkscape:connector-curvature="0"
             d="m -18.7305,17.9492 -32.5078,43.1367 24.6563,18.5821 6.6992,-8.8867 -13.2813,-10.0118 5.5274,-7.332 10.9765,8.2734 6.9727,-9.25 -10.9766,-8.2812 6.336,-8.3984 L -0.371094,46.2891 6.60156,37.043 -18.7305,17.9492"
             style="fill:#4f4c4c;fill-opacity:1;fill-rule:nonzero;stroke:none"
             id="path5831" />
          <path
             inkscape:connector-curvature="0"
             d="m 12.8516,60.0195 c 1.9414,-2.5781 3.9257,-2.6836 5.6914,-1.3593 1.7578,1.3281 2.2187,3.2734 0.2656,5.8515 L 15.5938,68.7773 12.7422,66.6406 6.67969,74.6875 20.9063,85.4102 38.9727,61.4375 33.1563,57.0508 29.8047,58.0977 C 28.9648,54.2773 27.1172,51.3672 23.7305,48.8164 12.4219,40.293 6.26953,43.9453 -6.54297,60.9453 -18.8203,77.2266 -19.4141,86.1992 -8.4375,94.4727 c 6.09375,4.5898 13.3125,6.4453 19.3438,2.5195 1.8867,-1.2227 3.7109,-3.2305 6.3398,-6.7188 L 5.85938,81.6992 3.96484,84.2188 C 2.01172,86.7969 0.03125,86.9023 -1.73828,85.5742 -3.49609,84.2461 -3.94531,82.3047 -2,79.7266 L 12.8516,60.0195"
             style="fill:#4f4c4c;fill-opacity:1;fill-rule:nonzero;stroke:none"
             id="path5833" />
          <path
             inkscape:connector-curvature="0"
             d="M 45.6055,66.4258 13.0938,109.57 24.4805,118.145 56.9922,75 45.6055,66.4258"
             style="fill:#4f4c4c;fill-opacity:1;fill-rule:nonzero;stroke:none"
             id="path5835" />
          <path
             inkscape:connector-curvature="0"
             d="m 70.1367,123.906 c 3.6602,2.766 4.7852,4.649 1.1602,9.453 -3.0742,4.09 -4.7735,4.219 -9.0391,1.004 l 7.8789,-10.457 z m 7.7656,-33.1443 -32.5117,43.1443 12.8125,9.649 c 9.2071,6.953 16.3789,7.441 23.9375,-2.586 7.5196,-9.973 6.461,-15.766 -3.9765,-23.625 l -1.961,-1.485 12.6758,-16.816 -10.9766,-8.2813"
             style="fill:#4f4c4c;fill-opacity:1;fill-rule:nonzero;stroke:none"
             id="path5837" />
          <path
             inkscape:connector-curvature="0"
             d="m 108.113,113.535 -32.5075,43.137 24.6605,18.582 6.699,-8.887 -13.2853,-10.012 5.5312,-7.332 10.9771,8.274 6.968,-9.25 -10.972,-8.281 6.336,-8.411 13.957,10.52 6.968,-9.246 -25.332,-19.094"
             style="fill:#4f4c4c;fill-opacity:1;fill-rule:nonzero;stroke:none"
             id="path5839" />
          <path
             inkscape:connector-curvature="0"
             d="m 139.695,155.605 c 1.946,-2.578 3.926,-2.683 5.696,-1.359 1.757,1.328 2.214,3.274 0.261,5.852 l -3.211,4.265 -2.851,-2.136 -6.067,8.046 14.243,10.723 18.062,-23.976 -5.828,-4.383 -3.352,1.047 c -0.835,-3.821 -2.683,-6.731 -6.074,-9.282 -11.304,-8.523 -17.461,-4.871 -30.269,12.129 -12.278,16.282 -12.871,25.254 -1.899,33.528 6.106,4.589 13.313,6.445 19.348,2.519 1.887,-1.223 3.711,-3.23 6.34,-6.719 l -11.391,-8.574 -1.89,2.52 c -1.958,2.578 -3.938,2.683 -5.708,1.355 -1.753,-1.324 -2.207,-3.269 -0.261,-5.847 l 14.851,-19.708"
             style="fill:#4f4c4c;fill-opacity:1;fill-rule:nonzero;stroke:none"
             id="path5841" />
          <path
             inkscape:connector-curvature="0"
             d="m 172.449,162.012 -32.508,43.144 11.387,8.574 32.512,-43.144 -11.391,-8.574"
             style="fill:#4f4c4c;fill-opacity:1;fill-rule:nonzero;stroke:none"
             id="path5843" />
          <path
             inkscape:connector-curvature="0"
             d="m 196.98,219.492 c 3.665,2.766 4.79,4.649 1.165,9.453 -3.079,4.09 -4.766,4.219 -9.043,1.004 l 7.878,-10.457 z m 7.778,-33.144 -32.512,43.144 12.805,9.649 c 9.219,6.953 16.375,7.441 23.933,-2.586 7.52,-9.973 6.465,-15.766 -3.972,-23.625 l -1.965,-1.485 12.676,-16.816 -10.965,-8.281"
             style="fill:#4f4c4c;fill-opacity:1;fill-rule:nonzero;stroke:none"
             id="path5845" />
          <path
             inkscape:connector-curvature="0"
             d="m 234.949,209.121 -32.5,43.137 24.66,18.582 6.7,-8.887 -13.282,-10.012 5.528,-7.332 10.965,8.274 6.972,-9.25 -10.965,-8.281 6.336,-8.411 13.95,10.52 6.992,-9.246 -25.356,-19.094"
             style="fill:#4f4c4c;fill-opacity:1;fill-rule:nonzero;stroke:none"
             id="path5847" />
          <path
             inkscape:connector-curvature="0"
             d="m 266.531,251.191 c 1.953,-2.578 3.949,-2.683 5.703,-1.355 1.758,1.324 2.207,3.269 0.278,5.848 l -3.227,4.265 -2.847,-2.136 -6.055,8.046 14.219,10.723 18.062,-23.977 -5.816,-4.382 -3.364,1.047 c -0.839,-3.821 -2.671,-6.731 -6.074,-9.282 -11.305,-8.523 -17.461,-4.871 -30.269,12.129 -12.27,16.281 -12.864,25.254 -1.899,33.528 6.113,4.589 13.321,6.445 19.36,2.519 1.875,-1.223 3.711,-3.23 6.328,-6.719 l -11.367,-8.574 -1.918,2.52 c -1.93,2.578 -3.922,2.683 -5.68,1.355 -1.777,-1.324 -2.231,-3.269 -0.277,-5.848 l 14.843,-19.707"
             style="fill:#4f4c4c;fill-opacity:1;fill-rule:nonzero;stroke:none"
             id="path5849" />
          <path
             inkscape:connector-curvature="0"
             d="m 299.285,257.598 -32.5,43.144 11.367,8.571 32.524,-43.141 -11.391,-8.574"
             style="fill:#4f4c4c;fill-opacity:1;fill-rule:nonzero;stroke:none"
             id="path5851" />
          <path
             inkscape:connector-curvature="0"
             d="m 323.816,315.074 c 3.657,2.754 4.789,4.649 1.172,9.453 -3.086,4.082 -4.785,4.219 -9.043,1.004 l 7.871,-10.457 z m 7.778,-33.14 -32.524,43.14 12.817,9.649 c 9.218,6.941 16.383,7.441 23.941,-2.598 7.524,-9.973 6.445,-15.754 -3.98,-23.613 l -1.953,-1.485 12.671,-16.812 -10.972,-8.281"
             style="fill:#4f4c4c;fill-opacity:1;fill-rule:nonzero;stroke:none"
             id="path5853" />
          <path
             inkscape:connector-curvature="0"
             d="m 361.785,304.691 -32.5,43.137 24.668,18.594 6.699,-8.899 -13.281,-10.007 5.527,-7.325 10.981,8.262 6.973,-9.25 -10.981,-8.269 6.328,-8.411 13.969,10.52 6.973,-9.258 -25.356,-19.094"
             style="fill:#4f4c4c;fill-opacity:1;fill-rule:nonzero;stroke:none"
             id="path5855" />
          <path
             inkscape:connector-curvature="0"
             d="m 393.391,346.773 c 1.929,-2.589 3.922,-2.687 5.679,-1.367 1.758,1.328 2.231,3.27 0.278,5.86 l -3.227,4.265 -2.851,-2.148 -6.051,8.058 14.219,10.723 18.066,-23.984 -5.82,-4.387 -3.34,1.055 c -0.84,-3.828 -2.699,-6.727 -6.074,-9.278 -11.309,-8.523 -17.461,-4.871 -30.278,12.129 -12.281,16.281 -12.871,25.246 -1.89,33.528 6.089,4.589 13.296,6.445 19.336,2.519 1.89,-1.23 3.707,-3.242 6.343,-6.719 l -11.386,-8.586 -1.891,2.532 c -1.953,2.578 -3.945,2.675 -5.703,1.347 -1.758,-1.32 -2.207,-3.261 -0.278,-5.84 l 14.868,-19.707"
             style="fill:#4f4c4c;fill-opacity:1;fill-rule:nonzero;stroke:none"
             id="path5857" />
          <path
             inkscape:connector-curvature="0"
             d="m 426.145,353.18 -32.524,43.144 11.391,8.574 32.5,-43.144 -11.367,-8.574"
             style="fill:#4f4c4c;fill-opacity:1;fill-rule:nonzero;stroke:none"
             id="path5859" />
          <path
             inkscape:connector-curvature="0"
             d="m 450.676,410.66 c 3.648,2.754 4.785,4.649 1.148,9.453 -3.062,4.082 -4.761,4.219 -9.043,1.004 l 7.895,-10.457 z m 7.754,-33.144 -32.5,43.144 12.808,9.649 c 9.2,6.941 16.367,7.441 23.93,-2.598 7.52,-9.973 6.465,-15.754 -3.969,-23.613 l -1.969,-1.485 12.672,-16.828 -10.972,-8.269"
             style="fill:#4f4c4c;fill-opacity:1;fill-rule:nonzero;stroke:none"
             id="path5861" />
          <path
             inkscape:connector-curvature="0"
             d="m 488.645,400.277 -32.5,43.137 24.648,18.594 6.695,-8.899 -13.277,-10.007 5.523,-7.325 10.981,8.262 6.973,-9.25 -10.977,-8.269 6.348,-8.411 13.945,10.52 6.973,-9.258 -25.332,-19.094"
             style="fill:#4f4c4c;fill-opacity:1;fill-rule:nonzero;stroke:none"
             id="path5863" />
          <path
             inkscape:connector-curvature="0"
             d="m 520.227,442.359 c 1.953,-2.589 3.945,-2.687 5.703,-1.367 1.758,1.328 2.207,3.27 0.254,5.86 l -3.204,4.265 -2.851,-2.148 -6.074,8.058 14.238,10.723 18.062,-23.984 -5.835,-4.387 -3.34,1.055 c -0.84,-3.829 -2.676,-6.727 -6.075,-9.286 -11.308,-8.515 -17.46,-4.863 -30.277,12.137 -12.265,16.281 -12.867,25.246 -1.89,33.528 6.089,4.589 13.32,6.445 19.355,2.519 1.875,-1.23 3.711,-3.242 6.324,-6.719 l -11.387,-8.586 -1.89,2.532 c -1.953,2.578 -3.93,2.675 -5.703,1.347 -1.758,-1.32 -2.207,-3.261 -0.254,-5.84 l 14.844,-19.707"
             style="fill:#4f4c4c;fill-opacity:1;fill-rule:nonzero;stroke:none"
             id="path5865" />
          <path
             inkscape:connector-curvature="0"
             d="M 26.1133,-39.668 -6.39453,3.46875 4.98828,12.0508 37.4883,-31.0938 26.1133,-39.668"
             style="fill:#4f4c4c;fill-opacity:1;fill-rule:nonzero;stroke:none"
             id="path5867" />
          <path
             inkscape:connector-curvature="0"
             d="m 50.6445,17.8125 c 3.6602,2.7617 4.7969,4.6484 1.1719,9.4531 -3.0781,4.0821 -4.7773,4.2188 -9.043,1.0039 l 7.8711,-10.457 z m 7.7618,-33.1445 -32.5,43.1445 12.8046,9.6484 c 9.2188,6.9414 16.3789,7.4414 23.9454,-2.5898 C 70.1641,24.9023 69.1094,19.1094 58.6719,11.25 L 56.7109,9.76563 69.3867,-7.05078 58.4063,-15.332"
             style="fill:#4f4c4c;fill-opacity:1;fill-rule:nonzero;stroke:none"
             id="path5869" />
          <path
             inkscape:connector-curvature="0"
             d="M 88.6211,7.44141 56.1133,50.5664 80.7734,69.1602 87.4727,60.2656 74.1992,50.2539 l 5.5274,-7.3242 10.9765,8.2695 6.9727,-9.2461 -10.9766,-8.2812 6.3281,-8.4063 13.9527,10.5157 6.973,-9.25 L 88.6211,7.44141"
             style="fill:#4f4c4c;fill-opacity:1;fill-rule:nonzero;stroke:none"
             id="path5871" />
          <path
             inkscape:connector-curvature="0"
             d="m 120.203,49.5117 c 1.953,-2.5859 3.938,-2.6953 5.695,-1.3672 1.766,1.3282 2.215,3.2735 0.274,5.8594 l -3.223,4.2656 -2.844,-2.1367 -6.062,8.0469 14.227,10.7226 18.07,-23.9726 -5.832,-4.3867 -3.352,1.0468 c -0.828,-3.8281 -2.676,-6.7304 -6.062,-9.289 -11.321,-8.5156 -17.473,-4.8633 -30.281,12.1367 -12.27,16.2813 -12.8638,25.2461 -1.8989,33.5273 6.1059,4.5899 13.3129,6.4454 19.3559,2.5196 1.875,-1.2305 3.71,-3.2305 6.339,-6.7188 l -11.386,-8.5742 -1.907,2.5195 c -1.941,2.5782 -3.933,2.6758 -5.691,1.3477 -1.77,-1.3281 -2.219,-3.2617 -0.266,-5.8398 l 14.844,-19.7071"
             style="fill:#4f4c4c;fill-opacity:1;fill-rule:nonzero;stroke:none"
             id="path5873" />
          <path
             inkscape:connector-curvature="0"
             d="m 152.961,55.918 -32.512,43.1367 11.387,8.5823 32.512,-43.1448 -11.387,-8.5742"
             style="fill:#4f4c4c;fill-opacity:1;fill-rule:nonzero;stroke:none"
             id="path5875" />
          <path
             inkscape:connector-curvature="0"
             d="m 177.488,113.398 c 3.664,2.762 4.797,4.649 1.172,9.454 -3.074,4.082 -4.773,4.218 -9.043,1.003 l 7.871,-10.457 z m 7.778,-33.1441 -32.512,43.1441 12.805,9.649 c 9.214,6.941 16.375,7.441 23.945,-2.586 7.508,-9.973 6.453,-15.766 -3.984,-23.625 l -1.965,-1.484 12.675,-16.8168 -10.964,-8.2813"
             style="fill:#4f4c4c;fill-opacity:1;fill-rule:nonzero;stroke:none"
             id="path5877" />
          <path
             inkscape:connector-curvature="0"
             d="m 215.469,103.027 -32.508,43.125 24.656,18.594 6.699,-8.894 -13.269,-10.012 5.523,-7.324 10.981,8.269 6.969,-9.246 -10.973,-8.281 6.324,-8.406 13.957,10.515 6.961,-9.25 -25.32,-19.09"
             style="fill:#4f4c4c;fill-opacity:1;fill-rule:nonzero;stroke:none"
             id="path5879" />
          <path
             inkscape:connector-curvature="0"
             d="m 247.039,145.098 c 1.953,-2.586 3.945,-2.696 5.703,-1.368 1.762,1.329 2.207,3.274 0.278,5.86 l -3.223,4.265 -2.856,-2.136 -6.05,8.047 14.214,10.722 18.071,-23.972 -5.821,-4.387 -3.363,1.047 c -0.816,-3.828 -2.676,-6.731 -6.054,-9.289 -11.329,-8.516 -17.477,-4.864 -30.282,12.136 -12.265,16.282 -12.859,25.247 -1.886,33.528 6.093,4.59 13.3,6.445 19.335,2.519 1.875,-1.23 3.711,-3.23 6.348,-6.718 l -11.387,-8.575 -1.914,2.52 c -1.929,2.578 -3.914,2.676 -5.679,1.348 -1.758,-1.329 -2.219,-3.262 -0.266,-5.84 l 14.832,-19.707"
             style="fill:#4f4c4c;fill-opacity:1;fill-rule:nonzero;stroke:none"
             id="path5881" />
          <path
             inkscape:connector-curvature="0"
             d="m 279.797,151.504 -32.5,43.137 11.387,8.574 32.5,-43.137 -11.387,-8.574"
             style="fill:#4f4c4c;fill-opacity:1;fill-rule:nonzero;stroke:none"
             id="path5883" />
          <path
             inkscape:connector-curvature="0"
             d="m 304.324,208.984 c 3.672,2.754 4.785,4.649 1.172,9.454 -3.086,4.082 -4.766,4.218 -9.043,1.003 l 7.871,-10.457 z m 7.778,-33.144 -32.5,43.137 12.793,9.656 c 9.214,6.933 16.382,7.441 23.945,-2.598 7.515,-9.972 6.465,-15.762 -3.985,-23.625 l -1.957,-1.472 12.676,-16.817 -10.972,-8.281"
             style="fill:#4f4c4c;fill-opacity:1;fill-rule:nonzero;stroke:none"
             id="path5885" />
          <path
             inkscape:connector-curvature="0"
             d="m 342.297,198.605 -32.5,43.133 24.668,18.582 6.695,-8.894 -13.277,-10 5.523,-7.324 10.981,8.261 6.968,-9.25 -10.972,-8.269 6.328,-8.406 13.965,10.515 6.969,-9.258 -25.348,-19.09"
             style="fill:#4f4c4c;fill-opacity:1;fill-rule:nonzero;stroke:none"
             id="path5887" />
          <path
             inkscape:connector-curvature="0"
             d="m 373.895,240.684 c 1.957,-2.598 3.925,-2.696 5.683,-1.368 1.777,1.329 2.231,3.274 0.277,5.86 l -3.222,4.265 -2.832,-2.144 -6.074,8.047 14.238,10.719 18.047,-23.973 -5.824,-4.387 -3.336,1.059 c -0.84,-3.828 -2.7,-6.731 -6.079,-9.289 -11.304,-8.528 -17.46,-4.864 -30.269,12.129 -12.27,16.289 -12.871,25.253 -1.899,33.527 6.094,4.598 13.301,6.441 19.336,2.516 1.899,-1.219 3.711,-3.231 6.352,-6.707 l -11.391,-8.583 -1.89,2.516 c -1.953,2.59 -3.949,2.688 -5.703,1.359 -1.758,-1.328 -2.207,-3.261 -0.254,-5.847 l 14.84,-19.699"
             style="fill:#4f4c4c;fill-opacity:1;fill-rule:nonzero;stroke:none"
             id="path5889" />
          <path
             inkscape:connector-curvature="0"
             d="m 406.648,247.09 -32.515,43.137 11.387,8.574 32.5,-43.137 -11.372,-8.574"
             style="fill:#4f4c4c;fill-opacity:1;fill-rule:nonzero;stroke:none"
             id="path5891" />
          <path
             inkscape:connector-curvature="0"
             d="m 431.184,304.566 c 3.652,2.754 4.785,4.649 1.152,9.454 -3.066,4.082 -4.77,4.218 -9.023,1.003 l 7.871,-10.457 z m 7.754,-33.14 -32.5,43.129 12.808,9.66 c 9.223,6.933 16.367,7.441 23.945,-2.598 7.5,-9.972 6.45,-15.762 -3.98,-23.621 l -1.977,-1.473 12.676,-16.816 -10.972,-8.281"
             style="fill:#4f4c4c;fill-opacity:1;fill-rule:nonzero;stroke:none"
             id="path5893" />
          <path
             inkscape:connector-curvature="0"
             d="m 469.148,294.188 -32.5,43.132 24.653,18.582 6.695,-8.894 -13.262,-10 5.532,-7.324 10.957,8.261 6.968,-9.25 -10.957,-8.269 6.329,-8.41 13.949,10.519 6.968,-9.258 -25.332,-19.089"
             style="fill:#4f4c4c;fill-opacity:1;fill-rule:nonzero;stroke:none"
             id="path5895" />
          <path
             inkscape:connector-curvature="0"
             d="m 500.73,336.266 c 1.958,-2.598 3.95,-2.696 5.708,-1.368 1.753,1.329 2.207,3.27 0.273,5.86 l -3.227,4.265 -2.847,-2.148 -6.059,8.047 14.223,10.723 18.062,-23.973 -5.84,-4.387 -3.335,1.055 c -0.825,-3.828 -2.676,-6.727 -6.055,-9.285 -11.328,-8.528 -17.485,-4.864 -30.293,12.129 -12.27,16.289 -12.871,25.254 -1.899,33.523 6.118,4.602 13.325,6.445 19.36,2.52 1.875,-1.219 3.711,-3.231 6.328,-6.707 l -11.367,-8.586 -1.914,2.519 c -1.938,2.59 -3.926,2.688 -5.688,1.36 -1.758,-1.329 -2.222,-3.262 -0.269,-5.852 l 14.839,-19.695"
             style="fill:#4f4c4c;fill-opacity:1;fill-rule:nonzero;stroke:none"
             id="path5897" />
          <path
             inkscape:connector-curvature="0"
             d="m 157.988,7.30469 c 3.66,2.75391 4.793,4.64841 1.172,9.45311 -3.074,4.082 -4.773,4.2188 -9.043,0.9961 l 7.871,-10.44921 z m 7.774,-33.14449 -32.508,43.1445 12.809,9.6484 c 9.21,6.9414 16.378,7.4414 23.937,-2.5976 7.52,-9.9688 6.453,-15.76175 -3.977,-23.625031 l -1.968,-1.484375 12.683,-16.812494 -10.976,-8.2734"
             style="fill:#4f4c4c;fill-opacity:1;fill-rule:nonzero;stroke:none"
             id="path5899" />
          <path
             inkscape:connector-curvature="0"
             d="m 195.969,-3.07422 -32.512,43.13282 24.668,18.5859 6.699,-8.8867 -13.281,-10.0117 5.527,-7.3359 10.977,8.2734 6.973,-9.2461 -10.977,-8.2734 6.328,-8.4063 13.965,10.5156 6.973,-9.2578 -25.34,-19.08982"
             style="fill:#4f4c4c;fill-opacity:1;fill-rule:nonzero;stroke:none"
             id="path5901" />
          <path
             inkscape:connector-curvature="0"
             d="m 227.559,39.0039 c 1.945,-2.5859 3.925,-2.6953 5.695,-1.3672 1.758,1.3281 2.207,3.2696 0.262,5.8594 l -3.211,4.2578 -2.856,-2.1406 -6.062,8.0469 14.226,10.7265 18.071,-23.9765 -5.825,-4.3868 -3.355,1.0469 c -0.844,-3.8164 -2.68,-6.7187 -6.074,-9.2773 -11.313,-8.5235 -17.461,-4.8711 -30.278,12.1289 -12.261,16.289 -12.859,25.2539 -1.882,33.5234 6.093,4.6016 13.308,6.4492 19.343,2.5235 1.887,-1.2227 3.711,-3.2344 6.34,-6.7227 l -11.387,-8.5703 -1.894,2.5273 c -1.953,2.5782 -3.938,2.6758 -5.703,1.3477 -1.758,-1.3281 -2.207,-3.2617 -0.266,-5.8399 l 14.856,-19.707"
             style="fill:#4f4c4c;fill-opacity:1;fill-rule:nonzero;stroke:none"
             id="path5903" />
          <path
             inkscape:connector-curvature="0"
             d="m 260.305,45.4102 -32.5,43.1367 11.367,8.582 32.516,-43.1445 -11.383,-8.5742"
             style="fill:#4f4c4c;fill-opacity:1;fill-rule:nonzero;stroke:none"
             id="path5905" />
          <path
             inkscape:connector-curvature="0"
             d="m 284.836,102.891 c 3.648,2.754 4.781,4.648 1.172,9.453 -3.086,4.082 -4.785,4.219 -9.043,0.996 l 7.871,-10.449 z m 7.769,-33.1449 -32.515,43.1449 12.808,9.648 c 9.219,6.941 16.387,7.441 23.95,-2.598 7.515,-9.968 6.441,-15.761 -3.989,-23.6246 l -1.968,-1.4805 12.695,-16.8164 -10.981,-8.2734"
             style="fill:#4f4c4c;fill-opacity:1;fill-rule:nonzero;stroke:none"
             id="path5907" />
          <path
             inkscape:connector-curvature="0"
             d="m 322.805,92.5117 -32.5,43.1333 24.668,18.585 6.699,-8.886 -13.281,-10.012 5.523,-7.336 10.981,8.274 6.968,-9.25 -10.972,-8.27 6.328,-8.418 13.965,10.527 6.968,-9.257 -25.347,-19.0903"
             style="fill:#4f4c4c;fill-opacity:1;fill-rule:nonzero;stroke:none"
             id="path5909" />
          <path
             inkscape:connector-curvature="0"
             d="m 354.402,134.59 c 1.938,-2.586 3.926,-2.695 5.688,-1.367 1.758,1.328 2.223,3.269 0.269,5.859 l -3.218,4.258 -2.856,-2.141 -6.055,8.047 14.219,10.727 18.071,-23.977 -5.825,-4.387 -3.34,1.047 c -0.835,-3.816 -2.695,-6.718 -6.074,-9.277 -11.304,-8.524 -17.461,-4.871 -30.269,12.129 -12.285,16.289 -12.871,25.254 -1.899,33.523 6.098,4.602 13.305,6.449 19.336,2.524 1.899,-1.223 3.711,-3.235 6.352,-6.719 l -11.391,-8.574 -1.89,2.527 c -1.957,2.578 -3.95,2.676 -5.707,1.348 -1.754,-1.328 -2.208,-3.262 -0.27,-5.84 l 14.859,-19.707"
             style="fill:#4f4c4c;fill-opacity:1;fill-rule:nonzero;stroke:none"
             id="path5911" />
          <path
             inkscape:connector-curvature="0"
             d="m 387.141,140.984 -32.5,43.149 11.382,8.57 32.5,-43.133 -11.382,-8.586"
             style="fill:#4f4c4c;fill-opacity:1;fill-rule:nonzero;stroke:none"
             id="path5913" />
          <path
             inkscape:connector-curvature="0"
             d="m 411.688,198.477 c 3.656,2.753 4.789,4.648 1.156,9.453 -3.071,4.082 -4.77,4.218 -9.043,0.996 l 7.887,-10.449 z m 7.753,-33.145 -32.5,43.137 12.793,9.656 c 9.219,6.934 16.387,7.441 23.95,-2.598 7.515,-9.98 6.461,-15.761 -3.989,-23.632 l -1.953,-1.473 12.68,-16.817 -10.981,-8.273"
             style="fill:#4f4c4c;fill-opacity:1;fill-rule:nonzero;stroke:none"
             id="path5915" />
          <path
             inkscape:connector-curvature="0"
             d="m 449.656,188.086 -32.515,43.144 24.668,18.583 6.699,-8.895 -13.281,-10 5.527,-7.332 10.976,8.269 6.969,-9.257 -10.972,-8.262 6.328,-8.418 13.965,10.527 6.968,-9.257 -25.332,-19.102"
             style="fill:#4f4c4c;fill-opacity:1;fill-rule:nonzero;stroke:none"
             id="path5917" />
          <path
             inkscape:connector-curvature="0"
             d="m 481.238,230.164 c 1.953,-2.586 3.93,-2.684 5.688,-1.355 1.773,1.328 2.222,3.261 0.269,5.847 l -3.218,4.27 -2.832,-2.149 -6.079,8.047 14.243,10.723 18.062,-23.965 -5.84,-4.394 -3.34,1.054 c -0.836,-3.828 -2.671,-6.726 -6.074,-9.277 -11.304,-8.535 -17.461,-4.871 -30.269,12.129 -12.27,16.289 -12.871,25.254 -1.899,33.515 6.098,4.602 13.305,6.446 19.36,2.52 1.875,-1.211 3.711,-3.223 6.328,-6.707 l -11.391,-8.586 -1.891,2.527 c -1.957,2.59 -3.949,2.688 -5.707,1.36 -1.753,-1.328 -2.207,-3.262 -0.253,-5.852 l 14.843,-19.707"
             style="fill:#4f4c4c;fill-opacity:1;fill-rule:nonzero;stroke:none"
             id="path5919" />
          <path
             inkscape:connector-curvature="0"
             d="m 513.992,236.57 -32.5,43.149 11.367,8.574 32.524,-43.137 -11.391,-8.586"
             style="fill:#4f4c4c;fill-opacity:1;fill-rule:nonzero;stroke:none"
             id="path5921" />
          <path
             inkscape:connector-curvature="0"
             d="m 265.344,-3.20313 c 3.648,2.753911 4.785,4.64844 1.172,9.45313 -3.086,4.082 -4.786,4.2188 -9.043,0.99609 l 7.871,-10.44922 z m 7.769,-33.14457 -32.515,43.14458 12.808,9.64842 c 9.223,6.9453 16.391,7.4414 23.949,-2.5976 7.516,-9.96879 6.461,-15.76176 -3.988,-23.61333 l -1.953,-1.48437 12.68,-16.8242 -10.981,-8.2735"
             style="fill:#4f4c4c;fill-opacity:1;fill-rule:nonzero;stroke:none"
             id="path5923" />
          <path
             inkscape:connector-curvature="0"
             d="m 303.313,-13.582 -32.5,43.1328 24.667,18.5859 6.7,-8.8906 -13.285,-10.0078 5.531,-7.3242 10.972,8.2734 6.973,-9.2578 -10.976,-8.2734 6.332,-8.41021 13.961,10.51951 6.972,-9.25779 -25.347,-19.08981"
             style="fill:#4f4c4c;fill-opacity:1;fill-rule:nonzero;stroke:none"
             id="path5925" />
          <path
             inkscape:connector-curvature="0"
             d="m 334.91,28.4961 c 1.938,-2.5898 3.93,-2.6953 5.688,-1.3672 1.773,1.3281 2.222,3.2695 0.269,5.8594 l -3.222,4.2578 -2.832,-2.1406 -6.075,8.0468 14.223,10.7266 18.062,-23.9766 -5.82,-4.3828 -3.34,1.0508 c -0.84,-3.8281 -2.691,-6.7265 -6.07,-9.2851 -11.313,-8.51567 -17.465,-4.8633 -30.273,12.1289 -12.266,16.289 -12.875,25.2539 -1.899,33.5234 6.098,4.6016 13.305,6.4492 19.34,2.5313 1.894,-1.2305 3.711,-3.2422 6.348,-6.7305 l -11.387,-8.5703 -1.899,2.5273 c -1.953,2.5781 -3.945,2.6758 -5.703,1.3477 -1.757,-1.3282 -2.207,-3.2617 -0.269,-5.8399 l 14.859,-19.707"
             style="fill:#4f4c4c;fill-opacity:1;fill-rule:nonzero;stroke:none"
             id="path5927" />
          <path
             inkscape:connector-curvature="0"
             d="m 367.645,34.8945 -32.5,43.1407 11.386,8.5742 32.5,-43.1328 -11.386,-8.5821"
             style="fill:#4f4c4c;fill-opacity:1;fill-rule:nonzero;stroke:none"
             id="path5929" />
          <path
             inkscape:connector-curvature="0"
             d="m 392.195,92.3828 c 3.657,2.7539 4.785,4.6485 1.157,9.4532 -3.071,4.082 -4.766,4.219 -9.043,0.996 l 7.886,-10.4492 z m 7.754,-33.1445 -32.5,43.1327 12.793,9.66 c 9.223,6.934 16.391,7.442 23.946,-2.597 7.523,-9.9809 6.464,-15.7621 -3.961,-23.6215 l -1.973,-1.4766 12.676,-16.8242 -10.981,-8.2734"
             style="fill:#4f4c4c;fill-opacity:1;fill-rule:nonzero;stroke:none"
             id="path5931" />
          <path
             inkscape:connector-curvature="0"
             d="m 430.168,81.9922 -32.523,43.1448 24.668,18.586 6.703,-8.899 -13.286,-10 5.532,-7.324 10.972,8.262 6.977,-9.258 -10.981,-8.262 6.348,-8.4061 13.945,10.5161 6.973,-9.258 -25.328,-19.1018"
             style="fill:#4f4c4c;fill-opacity:1;fill-rule:nonzero;stroke:none"
             id="path5933" />
          <path
             inkscape:connector-curvature="0"
             d="m 461.746,124.082 c 1.953,-2.598 3.945,-2.695 5.703,-1.367 1.762,1.328 2.207,3.262 0.254,5.859 l -3.199,4.258 -2.856,-2.148 -6.074,8.054 14.239,10.727 18.07,-23.977 -5.84,-4.394 -3.344,1.062 c -0.84,-3.828 -2.676,-6.726 -6.07,-9.285 -11.313,-8.523 -17.461,-4.863 -30.274,12.129 -12.265,16.289 -12.875,25.254 -1.894,33.523 6.094,4.602 13.301,6.45 19.352,2.524 1.875,-1.223 3.71,-3.234 6.332,-6.723 l -11.387,-8.582 -1.899,2.528 c -1.953,2.589 -3.941,2.687 -5.703,1.359 -1.758,-1.328 -2.207,-3.262 -0.254,-5.852 l 14.844,-19.695"
             style="fill:#4f4c4c;fill-opacity:1;fill-rule:nonzero;stroke:none"
             id="path5935" />
          <path
             inkscape:connector-curvature="0"
             d="m 494.504,130.48 -32.524,43.141 11.387,8.574 32.524,-43.132 -11.387,-8.583"
             style="fill:#4f4c4c;fill-opacity:1;fill-rule:nonzero;stroke:none"
             id="path5937" />
          <path
             inkscape:connector-curvature="0"
             d="m 519.031,187.969 c 3.657,2.754 4.785,4.648 1.172,9.453 -3.086,4.082 -4.781,4.219 -9.043,0.996 l 7.871,-10.449 z m 7.778,-33.145 -32.524,43.137 12.817,9.656 c 9.214,6.934 16.382,7.442 23.945,-2.597 7.5,-9.981 6.465,-15.762 -3.984,-23.625 l -1.958,-1.473 12.676,-16.824 -10.972,-8.274"
             style="fill:#4f4c4c;fill-opacity:1;fill-rule:nonzero;stroke:none"
             id="path5939" />
          <path
             inkscape:connector-curvature="0"
             d="m 380.051,-8.17578 c 3.672,2.76562 4.785,4.64062 1.172,9.44531 -3.086,4.08985 -4.785,4.22656 -9.043,1.01563 l 7.871,-10.46094 z m 7.769,-33.14062 -32.5,43.14062 12.793,9.65238 c 9.223,6.9414 16.391,7.4414 23.95,-2.58988 7.515,-9.98047 6.46,-15.76172 -3.989,-23.63282 l -1.953,-1.4766 12.68,-16.8242 -10.981,-8.2695"
             style="fill:#4f4c4c;fill-opacity:1;fill-rule:nonzero;stroke:none"
             id="path5941" />
          <path
             inkscape:connector-curvature="0"
             d="m 418.035,-18.5547 -32.515,43.1445 24.668,18.5743 6.699,-8.8868 -13.282,-10 5.528,-7.3437 10.972,8.2695 6.973,-9.2461 -10.973,-8.2695 6.329,-8.410156 13.961,10.519536 6.972,-9.250005 -25.332,-19.101575"
             style="fill:#4f4c4c;fill-opacity:1;fill-rule:nonzero;stroke:none"
             id="path5943" />
          <path
             inkscape:connector-curvature="0"
             d="m 449.617,23.5156 c 1.938,-2.5781 3.93,-2.6875 5.688,-1.3593 1.758,1.3281 2.222,3.2734 0.269,5.8515 l -3.219,4.2774 -2.851,-2.1485 -6.059,8.0469 14.243,10.7227 18.066,-23.9649 -5.844,-4.3945 -3.34,1.0547 c -0.84,-3.8282 -2.691,-6.7383 -6.074,-9.2891 -11.308,-8.52344 -17.461,-4.87109 -30.269,12.1406 -12.289,16.2774 -12.872,25.2422 -1.899,33.5157 6.098,4.5898 13.305,6.4453 19.34,2.5195 1.895,-1.2188 3.711,-3.2227 6.348,-6.7188 l -11.387,-8.5742 -1.899,2.5195 c -1.953,2.5899 -3.945,2.6954 -5.703,1.3672 -1.757,-1.3281 -2.207,-3.2695 -0.269,-5.8593 l 14.859,-19.7071"
             style="fill:#4f4c4c;fill-opacity:1;fill-rule:nonzero;stroke:none"
             id="path5945" />
          <path
             inkscape:connector-curvature="0"
             d="m 482.371,29.9219 -32.516,43.1445 11.383,8.5742 32.5,-43.1328 -11.367,-8.5859"
             style="fill:#4f4c4c;fill-opacity:1;fill-rule:nonzero;stroke:none"
             id="path5947" />
          <path
             inkscape:connector-curvature="0"
             d="m 506.902,87.4102 c 3.657,2.7656 4.786,4.6406 1.157,9.4453 -3.071,4.0895 -4.766,4.2305 -9.028,1.0156 l 7.871,-10.4609 z m 7.778,-33.1407 -32.524,43.1328 12.817,9.6607 c 9.215,6.941 16.367,7.441 23.922,-2.59 7.523,-9.9808 6.464,-15.7621 -3.961,-23.6332 l -1.973,-1.4765 12.691,-16.8242 -10.972,-8.2696"
             style="fill:#4f4c4c;fill-opacity:1;fill-rule:nonzero;stroke:none"
             id="path5949" />
          <path
             inkscape:connector-curvature="0"
             d="m 258.551,376.355 c 0.07,-0.16 0.14,-0.261 0.215,-0.41 0.023,0.094 0.062,0.243 0.086,0.371 -0.18,-0.007 -0.301,0.016 -0.301,0.039 z M 86.4141,124.668 c -0.0235,0.613 -0.0625,1.23 -0.0625,1.863 0,-1.355 0.0273,-1.922 0.0625,-1.863 z M 188.301,467.031 c 2.883,5.235 4.984,9.996 4.984,12.711 0,-2.14 -2.426,-6.644 -4.984,-12.711 z m 94.504,-269.687 c -0.102,0.039 -0.102,0.105 -0.188,0.183 l 0.723,0.2 c -0.203,-0.149 -0.352,-0.293 -0.535,-0.383 z m -85.141,98.078 c 0,3.402 0.184,4.398 0.434,4.637 -0.125,-9.668 -0.282,-9.746 -0.434,-4.637 z m 226.645,151.211 c 0,-2.399 -46.262,-53.102 -46.262,-56.258 0,-0.41 -7.102,-15.453 -30.227,-9.512 0,-12.363 -68.172,-27.039 -69.898,-23.816 8.516,8.266 44.746,49.387 44.746,51.957 0,0.758 12.437,16.871 6.219,21.355 0,13.704 -21.348,41.743 -21.348,39.504 0,-6.562 25.691,-28.258 -1.777,-56.617 0,4.192 -37.586,-41.156 -37.586,-40.984 -0.598,3.847 -1.074,-2.239 -1.289,-3.903 0,13.321 -3.989,-1.445 -8.121,7.586 -0.133,-0.461 -0.215,-0.847 -0.215,-1.14 -2.535,3.949 -5.094,-0.992 -6.77,-5.586 0,2.91 -3.574,-5.614 -3.574,3.574 -1.664,-3.035 -4.215,2.68 -6.766,0.984 -0.273,0.442 -0.539,0.801 -0.8,1.094 0.472,-0.016 0.8,-0.016 0.8,-0.016 0,-0.085 -5.242,17.45 -5.242,17.735 -4.386,6.781 -6.133,-1.043 -6.133,-0.813 0,-0.179 5.211,-16.425 5.25,-16.586 -1.347,-0.363 -2.214,0.293 -2.214,6.25 -0.18,-3.515 -0.582,-6.296 -1.028,-8.32 0,-0.742 -37.031,37.695 -37.031,38.695 -19.047,19.903 -12.531,41.516 -6.742,55.215 -6.297,-11.484 -16.375,-25.308 -16.375,-25.058 -6.203,-14.215 6.234,-25.946 6.234,-27.239 0,-2.308 37.27,-39.5 37.27,-48.371 0,1.625 6.574,-9.488 7.793,-4.461 -0.465,-4.339 -0.817,-6.629 -1.211,-6.472 0,-4.746 -69.86,20.008 -69.86,19.597 -23.109,1.328 -30.222,12.317 -30.222,14.149 0,3.988 -46.2269,51.676 -46.2269,61.433 -3.5781,-19.504 -0.914,-16.449 -0.914,-21.199 0,7.305 32.8989,-37.863 32.8989,-42.437 8.921,-20.875 32.019,-24.614 32.019,-20.285 4.457,-1.809 76.5,-22.708 76.5,-22.27 l 0,-8.859 c 0,6.699 -113.852,-7.571 -113.852,-4.059 0.883,-6.359 10.688,-4.289 10.688,-11.91 0,-0.258 99.344,2.387 99.344,-4.86 -1.496,-0.261 -10.059,-11.824 -13.145,-12.933 0.02,0.453 0.043,0.84 0.043,1.539 0,-0.715 -0.219,-1.211 -0.562,-1.625 -0.371,0.062 -0.594,0.414 -0.594,1.148 0,-0.589 -0.008,-1.027 -0.024,-1.586 -2.91,-1.769 -12.058,-0.82 -32.597,-9.066 0,-3.035 -24.887,-34.746 -24.887,-38.203 0,8.887 -51.5858,-55.137 -51.5858,-55.164 0,-11.184 -2.2149,-73.625 -2.6211,-74.172 0.3242,-9.602 3.1601,-18.965 11.4961,-24.27 0,-3.8355 0.8867,71.028 6.2348,94.165 0,-8.137 39.132,36.714 51.582,62.832 0,-12.344 18.664,15.574 34.679,19.175 0,3.719 0.235,7.848 0.235,-1.382 -0.145,10.691 -0.176,2.085 -0.207,-2.29 0,0 -0.004,-0.027 -0.004,-0.039 0.82,-8.914 3.265,-35.339 3.265,-50.781 0,3.867 0.266,17.485 0.266,15.371 0,-14.832 0.027,-6.59 0.027,-5.015 3.676,-17.981 12.438,-28.301 21.871,-33.567 l 0,-0.012 c 0.317,-0.066 2.301,-0.601 2.301,-0.632 -0.262,-0.227 -0.293,-0.496 -0.601,-0.711 -0.629,0.449 -1.164,0.867 -1.7,1.304 -0.058,-3.14 -0.097,-4.441 -0.14,-5.117 0.535,3.266 1.902,1.477 3.828,-5.105 4.828,1.562 9.668,-4.571 13.976,1.672 5.832,-5.371 11.93,-2.414 16.477,-11.047 0.785,8.535 1.762,2.136 2.656,0.117 -0.289,8.469 -0.586,0.605 -0.875,4.48 0,4.145 0.782,2.766 2.16,-1.992 0.77,4.571 1.582,-3.609 2.446,9.145 6.152,-2.473 17.5,-2.192 28,3.406 0,4.934 0.093,5.613 0.125,-1.687 0,3.843 -0.02,8.882 -0.02,9.375 9.285,1.636 17.903,12.71 21.531,30.679 0,-4.363 3.54,49.715 3.54,39.836 0,0.652 0,0.985 -0.071,2.246 0.047,0.254 0.071,0.774 0.071,1.856 16.023,5.965 34.722,-16.907 34.722,-23.758 12.426,-16.027 51.555,-69.602 51.555,-60.957 5.359,-16.145 6.23,-89.152 6.23,-89.27 8.352,4.375 11.223,22.344 11.543,14.004 -0.3,13.828 -2.629,83.418 -2.629,81.004 0,1.535 -51.589,62.61 -51.589,60.551 0,-4.914 -24.903,30.949 -24.903,29.016 -19.707,11 -32.012,14.46 -36.758,14.543 -3.957,13.46 -9.464,10.117 -10.332,12.816 0,10.668 99.563,9.086 99.563,4.519 0,2.024 9.781,-0.078 10.672,8.247 0,0.98 -113.828,5.5 -113.828,6.546 l 0,13.582 c 0,0.653 72.011,22.829 76.464,13.942 0,12.515 23.106,12.629 32.032,28.297 0,-4.59 32.883,47.414 32.883,38.656 0,14.648 2.695,7.637 -0.879,18.215 z M 264.707,375.645 c 0,7.699 5.195,13.996 5.195,18.472 0,6.422 -1.726,7.469 -6.113,5.696 0,-11.036 -3.84,-19.715 -4.937,-23.497 1.238,0 5.855,0.602 5.855,-0.671 z M 215.719,193.699 c -0.156,-0.965 -0.25,-2.332 -0.25,-4.246 0.129,3.809 0.179,3.074 0.25,4.246 z m -25.289,79.16 c -0.164,1.809 -0.274,2.961 -0.274,3.079 0,-3.782 0.25,-3.333 0.274,-3.079 z m 223.183,-156.16 c 0.02,-0.554 0.039,-1.261 0.039,-2.09 0,0.371 -0.019,1.121 -0.039,2.09 z m -197.867,82.196 c 0.035,-0.028 0.082,-0.055 0.113,-0.079 0,0 0,0.024 0,0.039 -0.023,0.012 -0.113,0.04 -0.113,0.04 z m 68.774,-9.969 c 0,0.73 0,1.933 0,3.34 0,-0.989 0,-2.071 0,-3.34"
             style="fill:#ffffff;fill-opacity:1;fill-rule:nonzero;stroke:none"
             id="path5951" />
          <path
             inkscape:connector-curvature="0"
             d="m 490,10 -480,0 0,480 480,0 0,-480 z M 0,500 0,0 500,0 500,500 0,500"
             style="fill:#231f20;fill-opacity:1;fill-rule:nonzero;stroke:none"
             id="path5953" />
          <path
             inkscape:connector-curvature="0"
             d="M 0,0 500,0 500,80 0,80 0,0 z"
             style="fill:#231f20;fill-opacity:1;fill-rule:nonzero;stroke:none"
             id="path5955" />
          <path
             inkscape:connector-curvature="0"
             d="m 184.441,14.1484 0,53.9102 28.379,0 0,-11.1172 -15.765,0 0,-9.7617 12.613,0 0,-11.5547 -12.613,0 0,-21.4766 -12.614,0"
             style="fill:#ffffff;fill-opacity:1;fill-rule:nonzero;stroke:none"
             id="path5957" />
          <path
             inkscape:connector-curvature="0"
             d="m 217.742,14.1484 0,53.9102 27.324,0 0,-11.1172 -14.714,0 0,-9.1601 12.168,0 0,-11.5586 -12.168,0 0,-10.5079 15.468,0 0,-11.5664 -28.078,0"
             style="fill:#ffffff;fill-opacity:1;fill-rule:nonzero;stroke:none"
             id="path5959" />
          <path
             inkscape:connector-curvature="0"
             d="m 261.406,31.418 6.309,0 -3.152,22.1445 -0.161,0 -2.996,-22.1445 z m 20.039,-17.2696 -12.011,0 -1.043,6.7579 -7.661,0 -1.05,-6.7579 -12.016,0 9.309,53.9102 15.168,0 9.304,-53.9102"
             style="fill:#ffffff;fill-opacity:1;fill-rule:nonzero;stroke:none"
             id="path5961" />
          <path
             inkscape:connector-curvature="0"
             d="m 296.504,45.3828 2.258,0 c 3.445,0 4.656,2.0977 4.656,6.4531 0,4.3555 -1.211,6.4571 -4.656,6.4571 l -2.258,0 0,-12.9102 z m -12.156,-31.2344 0,53.9102 15.613,0 c 10.809,0 15.469,-3.6055 15.469,-15.168 0,-8.6328 -3.614,-11.2578 -6.016,-12.0898 l 0,-0.1485 c 4.512,-0.8281 5.859,-8.4843 5.859,-15.2421 0,-5.3985 0.606,-9.1602 1.653,-11.2618 l -12.317,0 c -1.046,4.4375 -1.496,7.3555 -1.496,11.1836 0,9.0938 -0.75,10.7422 -4.8,10.7422 l -1.809,0 0,-21.9258 -12.156,0"
             style="fill:#ffffff;fill-opacity:1;fill-rule:nonzero;stroke:none"
             id="path5963" />
          <path
             inkscape:connector-curvature="0"
             d="m 480,451.23 -4.648,0 0,22.657 -0.137,0 -7.969,-22.657 -3.789,0 -7.578,22.657 -0.137,0 0,-22.657 -4.648,0 0,28.77 7.383,0 7.168,-21.395 0.136,0 6.985,21.395 7.234,0 0,-28.77 z m -32.227,28.77 0,-3.719 -7.91,0 0,-25.051 -4.648,0 0,25.051 -7.91,0 0,3.719 20.468,0"
             style="fill:#ffffff;fill-opacity:1;fill-rule:nonzero;stroke:none"
             id="path5965" />
        </g>
      </g>
    </g>
  </g>
</svg>
