<?xml version="1.0" encoding="UTF-8" standalone="no"?>
<!-- Created with Inkscape (http://www.inkscape.org/) -->

<svg
   xmlns:dc="http://purl.org/dc/elements/1.1/"
   xmlns:cc="http://creativecommons.org/ns#"
   xmlns:rdf="http://www.w3.org/1999/02/22-rdf-syntax-ns#"
   xmlns:svg="http://www.w3.org/2000/svg"
   xmlns="http://www.w3.org/2000/svg"
   xmlns:sodipodi="http://sodipodi.sourceforge.net/DTD/sodipodi-0.dtd"
   xmlns:inkscape="http://www.inkscape.org/namespaces/inkscape"
   width="256"
   height="256"
   id="svg11606"
   version="1.1"
   inkscape:version="0.48.4 r9939"
   sodipodi:docname="New document 16">
  <defs
     id="defs11608">
    <clipPath
       clipPathUnits="userSpaceOnUse"
       id="clipPath11455">
      <rect
         y="-50.004704"
         x="0.00065686717"
         height="50"
         width="50"
         id="rect11457"
         style="opacity:0.91666667;fill:#00ff6d;fill-opacity:1;fill-rule:evenodd;stroke:none"
         transform="scale(1,-1)" />
    </clipPath>
  </defs>
  <sodipodi:namedview
     id="base"
     pagecolor="#ffffff"
     bordercolor="#666666"
     borderopacity="1.0"
     inkscape:pageopacity="0.0"
     inkscape:pageshadow="2"
     inkscape:zoom="0.35"
     inkscape:cx="143"
     inkscape:cy="205.14286"
     inkscape:document-units="px"
     inkscape:current-layer="layer1"
     showgrid="false"
     fit-margin-top="0"
     fit-margin-left="0"
     fit-margin-right="0"
     fit-margin-bottom="0"
     inkscape:window-width="463"
     inkscape:window-height="423"
     inkscape:window-x="113"
     inkscape:window-y="50"
     inkscape:window-maximized="0" />
  <metadata
     id="metadata11611">
    <rdf:RDF>
      <cc:Work
         rdf:about="">
        <dc:format>image/svg+xml</dc:format>
        <dc:type
           rdf:resource="http://purl.org/dc/dcmitype/StillImage" />
        <dc:title></dc:title>
      </cc:Work>
    </rdf:RDF>
  </metadata>
  <g
     inkscape:label="Layer 1"
     inkscape:groupmode="layer"
     id="layer1"
     transform="translate(-232,-481.50504)">
    <g
       transform="matrix(5.12,0,0,-5.12,231.99664,737.52912)"
       inkscape:label="ink_ext_XXXXXX"
       id="g7555"
       clip-path="url(#clipPath11455)">
      <g
         transform="scale(0.1,0.1)"
         id="g7557">
        <path
           id="path7559"
           style="fill:#231f20;fill-opacity:1;fill-rule:nonzero;stroke:none"
           d="M 0,0 500,0 500,500 0,500 0,0 z"
           inkscape:connector-curvature="0" />
        <path
           id="path7561"
           style="fill:#4f4c4c;fill-opacity:1;fill-rule:nonzero;stroke:none"
           d="m -3.28125,395.211 -32.50005,43.133 11.375,8.586 32.51177,-43.145 -11.38672,-8.574"
           inkscape:connector-curvature="0" />
        <path
           id="path7563"
           style="fill:#4f4c4c;fill-opacity:1;fill-rule:nonzero;stroke:none"
           d="m 21.25,452.691 c 3.6602,2.762 4.793,4.649 1.1719,9.454 -3.086,4.082 -4.7735,4.218 -9.0547,1.003 L 21.25,452.691 z m 7.7734,-33.144 -32.51168,43.144 12.80469,9.649 c 9.21879,6.941 16.37889,7.441 23.93749,-2.59 7.5195,-9.969 6.4649,-15.762 -3.9687,-23.621 l -1.9688,-1.484 12.6719,-16.817 -10.9649,-8.281"
           inkscape:connector-curvature="0" />
        <path
           id="path7565"
           style="fill:#4f4c4c;fill-opacity:1;fill-rule:nonzero;stroke:none"
           d="m 59.2266,442.32 -32.5078,43.125 24.6679,18.594 6.6992,-8.898 -13.2812,-10.008 5.5195,-7.324 10.9727,8.269 6.9844,-9.246 -10.9766,-8.281 6.3281,-8.41 13.9649,10.519 6.9726,-9.25 -25.3437,-19.09"
           inkscape:connector-curvature="0" />
        <path
           id="path7567"
           style="fill:#4f4c4c;fill-opacity:1;fill-rule:nonzero;stroke:none"
           d="m 90.8086,484.391 c 1.9453,-2.59 3.9375,-2.696 5.707,-1.368 1.7578,1.329 2.2071,3.27 0.2617,5.86 l -3.2109,4.265 -2.8516,-2.136 -6.0664,8.047 14.2305,10.722 18.0621,-23.976 -5.828,-4.383 -3.347,1.043 c -0.832,-3.828 -2.676,-6.727 -6.067,-9.285 -11.3162,-8.516 -17.4724,-4.864 -30.2849,12.136 -12.2618,16.282 -12.8594,25.247 -1.8828,33.528 6.0937,4.59 13.3007,6.445 19.3359,2.519 1.8867,-1.23 3.7226,-3.234 6.3476,-6.718 l -11.3867,-8.575 -1.9062,2.52 c -1.9414,2.578 -3.9336,2.676 -5.6914,1.348 -1.7657,-1.329 -2.2149,-3.262 -0.2735,-5.84 l 14.8516,-19.707"
           inkscape:connector-curvature="0" />
        <path
           id="path7569"
           style="fill:#4f4c4c;fill-opacity:1;fill-rule:nonzero;stroke:none"
           d="m 123.563,490.797 -32.5083,43.133 11.3863,8.574 32.5,-43.133 -11.378,-8.574"
           inkscape:connector-curvature="0" />
        <path
           id="path7571"
           style="fill:#4f4c4c;fill-opacity:1;fill-rule:nonzero;stroke:none"
           d="m 1.75781,346.598 c 3.66016,2.761 4.79297,4.648 1.17188,9.453 -3.074221,4.082 -4.77344,4.219 -9.04297,1.004 l 7.87109,-10.457 z m 7.77344,-33.145 -32.50785,43.145 12.8008,9.648 c 9.218769,6.953 16.37502,7.442 23.9453,-2.59 7.5118,-9.968 6.4532,-15.761 -3.98434,-23.621 L 7.82422,338.551 20.4961,321.734 9.53125,313.453"
           inkscape:connector-curvature="0" />
        <path
           id="path7573"
           style="fill:#4f4c4c;fill-opacity:1;fill-rule:nonzero;stroke:none"
           d="m 39.7344,336.227 -32.50784,43.132 24.66014,18.586 6.6992,-8.886 -13.2734,-10.012 5.5273,-7.332 10.9766,8.269 6.9727,-9.246 -10.9766,-8.281 6.3281,-8.41 13.9532,10.519 6.9765,-9.25 -25.3359,-19.089"
           inkscape:connector-curvature="0" />
        <path
           id="path7575"
           style="fill:#4f4c4c;fill-opacity:1;fill-rule:nonzero;stroke:none"
           d="m 71.3203,378.297 c 1.9531,-2.578 3.9336,-2.695 5.7031,-1.367 1.7579,1.328 2.2032,3.281 0.2618,5.859 l -3.2227,4.266 -2.8437,-2.137 -6.0625,8.047 14.2304,10.723 18.0664,-23.977 -5.832,-4.383 -3.3477,1.043 c -0.832,-3.816 -2.6757,-6.726 -6.0664,-9.285 -11.3164,-8.516 -17.4726,-4.863 -30.2851,12.137 -12.2656,16.281 -12.8594,25.246 -1.8828,33.527 6.0937,4.59 13.3007,6.445 19.3476,2.52 1.875,-1.231 3.7071,-3.235 6.336,-6.719 l -11.3868,-8.574 -1.9062,2.519 c -1.9414,2.578 -3.9219,2.684 -5.6914,1.356 -1.7578,-1.329 -2.2149,-3.27 -0.2656,-5.848 l 14.8476,-19.707"
           inkscape:connector-curvature="0" />
        <path
           id="path7577"
           style="fill:#4f4c4c;fill-opacity:1;fill-rule:nonzero;stroke:none"
           d="m 104.07,384.703 -32.5075,43.145 11.3867,8.574 32.4998,-43.145 -11.379,-8.574"
           inkscape:connector-curvature="0" />
        <path
           id="path7579"
           style="fill:#4f4c4c;fill-opacity:1;fill-rule:nonzero;stroke:none"
           d="m 128.605,442.184 c 3.661,2.754 4.786,4.648 1.161,9.453 -3.078,4.082 -4.766,4.218 -9.036,1.004 l 7.875,-10.457 z m 7.762,-33.145 -32.5,43.145 12.805,9.648 c 9.219,6.941 16.375,7.441 23.941,-2.598 7.512,-9.972 6.457,-15.761 -3.98,-23.625 l -1.965,-1.472 12.676,-16.817 -10.977,-8.281"
           inkscape:connector-curvature="0" />
        <path
           id="path7581"
           style="fill:#4f4c4c;fill-opacity:1;fill-rule:nonzero;stroke:none"
           d="m 166.57,431.801 -32.5,43.137 24.66,18.593 6.7,-8.898 -13.282,-10.008 5.528,-7.324 10.976,8.262 6.973,-9.25 -10.977,-8.27 6.336,-8.41 13.957,10.519 6.973,-9.257 -25.344,-19.094"
           inkscape:connector-curvature="0" />
        <path
           id="path7583"
           style="fill:#4f4c4c;fill-opacity:1;fill-rule:nonzero;stroke:none"
           d="m 198.164,473.883 c 1.953,-2.59 3.938,-2.695 5.691,-1.367 1.77,1.328 2.219,3.269 0.278,5.859 l -3.227,4.266 -2.84,-2.149 -6.062,8.047 14.226,10.723 18.055,-23.973 -5.828,-4.387 -3.34,1.055 c -0.832,-3.828 -2.683,-6.727 -6.074,-9.285 -11.309,-8.527 -17.461,-4.863 -30.273,12.129 -12.266,16.289 -12.872,25.254 -1.895,33.523 6.105,4.602 13.313,6.446 19.348,2.52 1.882,-1.219 3.711,-3.231 6.336,-6.707 l -11.375,-8.586 -1.907,2.531 c -1.941,2.578 -3.933,2.676 -5.691,1.348 -1.762,-1.321 -2.219,-3.262 -0.266,-5.84 l 14.844,-19.707"
           inkscape:connector-curvature="0" />
        <path
           id="path7585"
           style="fill:#4f4c4c;fill-opacity:1;fill-rule:nonzero;stroke:none"
           d="m 230.918,480.289 -32.512,43.145 11.391,8.574 32.5,-43.145 -11.379,-8.574"
           inkscape:connector-curvature="0" />
        <path
           id="path7587"
           style="fill:#4f4c4c;fill-opacity:1;fill-rule:nonzero;stroke:none"
           d="m -17.7344,240.508 c 3.6602,2.762 4.793,4.648 1.1719,9.453 -3.0781,4.094 -4.7773,4.219 -9.043,1.008 l 7.8711,-10.461 z m 7.77346,-33.145 -32.50786,43.145 12.8008,9.648 c 9.2188,6.953 16.3789,7.442 23.94534,-2.59 7.51172,-9.968 6.457035,-15.757 -3.98437,-23.621 L -11.668,232.461 1.01563,215.645 -9.96094,207.363"
           inkscape:connector-curvature="0" />
        <path
           id="path7589"
           style="fill:#4f4c4c;fill-opacity:1;fill-rule:nonzero;stroke:none"
           d="m 20.2422,230.137 -32.5078,43.133 24.6601,18.585 6.6993,-8.886 -13.27349,-10.008 5.52739,-7.336 10.9765,8.281 6.9727,-9.258 -10.9766,-8.281 6.336,-8.398 13.957,10.515 6.9726,-9.254 -25.3437,-19.093"
           inkscape:connector-curvature="0" />
        <path
           id="path7591"
           style="fill:#4f4c4c;fill-opacity:1;fill-rule:nonzero;stroke:none"
           d="m 51.8281,272.207 c 1.9532,-2.578 3.9336,-2.687 5.6914,-1.355 1.7657,1.328 2.2149,3.269 0.2735,5.847 l -3.2227,4.27 -2.8437,-2.141 -6.0625,8.047 14.2304,10.723 18.0664,-23.977 -5.832,-4.383 -3.3398,1.055 c -0.8399,-3.828 -2.6875,-6.738 -6.0743,-9.285 -11.3164,-8.528 -17.4726,-4.875 -30.2851,12.129 -12.2656,16.277 -12.8594,25.254 -1.8945,33.519 6.1054,4.59 13.3125,6.446 19.3593,2.52 1.875,-1.223 3.7071,-3.235 6.336,-6.719 l -11.3867,-8.57 -1.9024,2.519 c -1.9453,2.586 -3.9375,2.688 -5.6953,1.36 -1.7695,-1.328 -2.2148,-3.262 -0.2656,-5.852 l 14.8476,-19.707"
           inkscape:connector-curvature="0" />
        <path
           id="path7593"
           style="fill:#4f4c4c;fill-opacity:1;fill-rule:nonzero;stroke:none"
           d="m 84.5898,278.613 -32.5078,43.141 11.375,8.574 32.5118,-43.14 -11.379,-8.575"
           inkscape:connector-curvature="0" />
        <path
           id="path7595"
           style="fill:#4f4c4c;fill-opacity:1;fill-rule:nonzero;stroke:none"
           d="m 109.109,336.09 c 3.664,2.762 4.797,4.648 1.172,9.453 -3.074,4.09 -4.773,4.219 -9.043,1.004 l 7.871,-10.457 z m 7.778,-33.145 -32.512,43.145 12.8008,9.648 c 9.2192,6.953 16.3792,7.442 23.9452,-2.59 7.512,-9.968 6.457,-15.761 -3.973,-23.621 l -1.972,-1.484 12.683,-16.816 -10.972,-8.282"
           inkscape:connector-curvature="0" />
        <path
           id="path7597"
           style="fill:#4f4c4c;fill-opacity:1;fill-rule:nonzero;stroke:none"
           d="m 147.09,325.719 -32.512,43.133 24.668,18.586 6.699,-8.887 -13.281,-10.012 5.527,-7.332 10.981,8.281 6.973,-9.258 -10.981,-8.281 6.34,-8.398 13.957,10.515 6.973,-9.257 -25.344,-19.09"
           inkscape:connector-curvature="0" />
        <path
           id="path7599"
           style="fill:#4f4c4c;fill-opacity:1;fill-rule:nonzero;stroke:none"
           d="m 178.672,367.789 c 1.953,-2.578 3.933,-2.687 5.703,-1.359 1.758,1.328 2.219,3.273 0.266,5.851 l -3.215,4.266 -2.852,-2.137 -6.062,8.047 14.226,10.723 18.067,-23.977 -5.821,-4.383 -3.347,1.055 c -0.84,-3.828 -2.688,-6.738 -6.074,-9.289 -11.321,-8.523 -17.473,-4.871 -30.286,12.129 -12.265,16.281 -12.863,25.254 -1.882,33.527 6.089,4.59 13.296,6.446 19.343,2.52 1.875,-1.223 3.711,-3.235 6.336,-6.719 l -11.386,-8.574 -1.891,2.519 c -1.953,2.586 -3.938,2.684 -5.703,1.356 -1.758,-1.328 -2.219,-3.262 -0.266,-5.848 l 14.844,-19.707"
           inkscape:connector-curvature="0" />
        <path
           id="path7601"
           style="fill:#4f4c4c;fill-opacity:1;fill-rule:nonzero;stroke:none"
           d="m 211.426,374.195 -32.512,43.145 11.391,8.574 32.508,-43.144 -11.387,-8.575"
           inkscape:connector-curvature="0" />
        <path
           id="path7603"
           style="fill:#4f4c4c;fill-opacity:1;fill-rule:nonzero;stroke:none"
           d="m 235.945,431.676 c 3.672,2.754 4.785,4.648 1.172,9.453 -3.074,4.082 -4.762,4.219 -9.031,1.004 l 7.859,-10.457 z m 7.778,-33.145 -32.5,43.145 12.8,9.648 c 9.219,6.942 16.375,7.442 23.938,-2.597 7.519,-9.973 6.465,-15.754 -3.984,-23.614 l -1.957,-1.484 12.675,-16.816 -10.972,-8.282"
           inkscape:connector-curvature="0" />
        <path
           id="path7605"
           style="fill:#4f4c4c;fill-opacity:1;fill-rule:nonzero;stroke:none"
           d="m 273.938,421.293 -32.524,43.137 24.672,18.593 6.695,-8.898 -13.277,-10.008 5.523,-7.324 10.981,8.27 6.972,-9.258 -10.976,-8.27 6.348,-8.398 13.945,10.508 6.973,-9.258 -25.332,-19.094"
           inkscape:connector-curvature="0" />
        <path
           id="path7607"
           style="fill:#4f4c4c;fill-opacity:1;fill-rule:nonzero;stroke:none"
           d="m 305.52,463.375 c 1.953,-2.59 3.921,-2.687 5.679,-1.367 1.781,1.328 2.231,3.269 0.278,5.859 l -3.223,4.266 -2.832,-2.149 -6.074,8.059 14.238,10.723 18.062,-23.985 -5.835,-4.386 -3.34,1.066 c -0.84,-3.84 -2.676,-6.738 -6.078,-9.289 -11.305,-8.524 -17.457,-4.871 -30.274,12.129 -12.266,16.281 -12.867,25.246 -1.891,33.527 6.09,4.59 13.297,6.445 19.333,2.52 1.898,-1.231 3.71,-3.243 6.347,-6.719 l -11.387,-8.586 -1.89,2.531 c -1.953,2.586 -3.945,2.676 -5.703,1.348 -1.758,-1.32 -2.207,-3.262 -0.254,-5.84 l 14.844,-19.707"
           inkscape:connector-curvature="0" />
        <path
           id="path7609"
           style="fill:#4f4c4c;fill-opacity:1;fill-rule:nonzero;stroke:none"
           d="m 338.27,469.781 -32.516,43.145 11.387,8.574 32.515,-43.145 -11.386,-8.574"
           inkscape:connector-curvature="0" />
        <path
           id="path7611"
           style="fill:#4f4c4c;fill-opacity:1;fill-rule:nonzero;stroke:none"
           d="m 362.805,527.262 c 3.648,2.754 4.785,4.648 1.172,9.453 -3.086,4.082 -4.789,4.219 -9.043,1.004 l 7.871,-10.457 z m 7.769,-33.145 -32.515,43.145 12.808,9.648 c 9.223,6.942 16.367,7.442 23.946,-2.597 7.5,-9.973 6.449,-15.754 -3.985,-23.614 l -1.973,-1.484 12.7,-16.828 -10.981,-8.27"
           inkscape:connector-curvature="0" />
        <path
           id="path7613"
           style="fill:#4f4c4c;fill-opacity:1;fill-rule:nonzero;stroke:none"
           d="m 0.75,124.043 -32.4961,43.137 24.65626,18.582 6.699215,-8.887 -13.281275,-10.012 5.52737,-7.332 10.97656,8.274 6.97266,-9.25 -10.97657,-8.282 6.33985,-8.41 13.95313,10.52 6.9727,-9.246 L 0.75,124.043"
           inkscape:connector-curvature="0" />
        <path
           id="path7615"
           style="fill:#4f4c4c;fill-opacity:1;fill-rule:nonzero;stroke:none"
           d="m 32.3438,166.113 c 1.9414,-2.578 3.9257,-2.695 5.6914,-1.367 1.7578,1.328 2.2187,3.281 0.2656,5.859 l -3.211,4.266 -2.8554,-2.137 -6.0625,8.047 14.2383,10.723 18.0586,-23.977 -5.8321,-4.382 -3.3398,1.043 c -0.8399,-3.829 -2.6875,-6.727 -6.0742,-9.286 -11.3086,-8.515 -17.461,-4.863 -30.2735,12.141 -12.277325,16.277 -12.871075,25.242 -1.8945,33.523 6.0937,4.59 13.3008,6.446 19.3476,2.52 1.8829,-1.231 3.7071,-3.231 6.336,-6.719 l -11.3867,-8.574 -1.8946,2.52 c -1.9531,2.578 -3.9336,2.683 -5.7031,1.359 -1.7578,-1.328 -2.207,-3.274 -0.2656,-5.852 l 14.8555,-19.707"
           inkscape:connector-curvature="0" />
        <path
           id="path7617"
           style="fill:#4f4c4c;fill-opacity:1;fill-rule:nonzero;stroke:none"
           d="m 65.0898,172.52 -32.5,43.144 11.3829,8.574 32.5,-43.144 -11.3829,-8.574"
           inkscape:connector-curvature="0" />
        <path
           id="path7619"
           style="fill:#4f4c4c;fill-opacity:1;fill-rule:nonzero;stroke:none"
           d="m 89.6289,230 c 3.6602,2.766 4.7852,4.648 1.1602,9.453 -3.0743,4.082 -4.7735,4.219 -9.043,1.008 L 89.6289,230 z m 7.7656,-33.145 -32.5,43.145 12.8008,9.648 c 9.211,6.954 16.3789,7.442 23.9377,-2.585 7.515,-9.973 6.465,-15.762 -3.9767,-23.625 l -1.961,-1.485 12.6717,-16.816 -10.9725,-8.282"
           inkscape:connector-curvature="0" />
        <path
           id="path7621"
           style="fill:#4f4c4c;fill-opacity:1;fill-rule:nonzero;stroke:none"
           d="m 127.598,219.629 -32.5003,43.137 24.6603,18.582 6.695,-8.887 -13.277,-10.012 5.523,-7.332 10.981,8.274 6.968,-9.25 -10.972,-8.282 6.336,-8.41 13.957,10.52 6.969,-9.246 -25.34,-19.094"
           inkscape:connector-curvature="0" />
        <path
           id="path7623"
           style="fill:#4f4c4c;fill-opacity:1;fill-rule:nonzero;stroke:none"
           d="m 159.188,261.699 c 1.945,-2.578 3.937,-2.695 5.695,-1.367 1.765,1.328 2.219,3.281 0.262,5.859 l -3.211,4.27 -2.852,-2.141 -6.062,8.047 14.238,10.723 18.055,-23.977 -5.821,-4.383 -3.347,1.043 c -0.84,-3.828 -2.688,-6.726 -6.079,-9.285 -11.304,-8.515 -17.461,-4.863 -30.269,12.141 -12.277,16.277 -12.871,25.242 -1.899,33.523 6.106,4.59 13.301,6.442 19.348,2.52 1.887,-1.231 3.711,-3.234 6.34,-6.719 l -11.391,-8.574 -1.89,2.519 c -1.953,2.579 -3.938,2.688 -5.696,1.36 -1.765,-1.328 -2.214,-3.274 -0.273,-5.852 l 14.852,-19.707"
           inkscape:connector-curvature="0" />
        <path
           id="path7625"
           style="fill:#4f4c4c;fill-opacity:1;fill-rule:nonzero;stroke:none"
           d="m 191.934,268.105 -32.5,43.141 11.379,8.574 32.507,-43.14 -11.386,-8.575"
           inkscape:connector-curvature="0" />
        <path
           id="path7627"
           style="fill:#4f4c4c;fill-opacity:1;fill-rule:nonzero;stroke:none"
           d="m 216.477,325.582 c 3.652,2.754 4.785,4.648 1.16,9.453 -3.074,4.082 -4.778,4.219 -9.043,1.004 l 7.883,-10.457 z m 7.761,-33.141 -32.508,43.141 12.809,9.648 c 9.211,6.942 16.379,7.442 23.938,-2.597 7.507,-9.973 6.457,-15.762 -3.973,-23.625 l -1.965,-1.473 12.664,-16.812 -10.965,-8.282"
           inkscape:connector-curvature="0" />
        <path
           id="path7629"
           style="fill:#4f4c4c;fill-opacity:1;fill-rule:nonzero;stroke:none"
           d="m 254.441,315.199 -32.507,43.137 24.66,18.594 6.695,-8.899 -13.277,-10.008 5.523,-7.324 10.981,8.262 6.968,-9.25 -10.972,-8.27 6.328,-8.41 13.965,10.52 6.968,-9.258 -25.332,-19.094"
           inkscape:connector-curvature="0" />
        <path
           id="path7631"
           style="fill:#4f4c4c;fill-opacity:1;fill-rule:nonzero;stroke:none"
           d="m 286.023,357.281 c 1.957,-2.59 3.95,-2.695 5.707,-1.367 1.754,1.328 2.208,3.27 0.25,5.859 l -3.203,4.266 -2.847,-2.148 -6.075,8.047 14.239,10.722 18.062,-23.972 -5.84,-4.387 -3.336,1.054 c -0.839,-3.828 -2.675,-6.726 -6.078,-9.285 -11.304,-8.527 -17.461,-4.863 -30.269,12.129 -12.27,16.289 -12.871,25.254 -1.899,33.524 6.094,4.601 13.301,6.445 19.36,2.519 1.875,-1.219 3.711,-3.23 6.328,-6.707 l -11.391,-8.586 -1.89,2.531 c -1.953,2.579 -3.926,2.676 -5.703,1.348 -1.758,-1.32 -2.208,-3.262 -0.254,-5.84 l 14.839,-19.707"
           inkscape:connector-curvature="0" />
        <path
           id="path7633"
           style="fill:#4f4c4c;fill-opacity:1;fill-rule:nonzero;stroke:none"
           d="m 318.777,363.688 -32.5,43.144 11.368,8.574 32.523,-43.144 -11.391,-8.574"
           inkscape:connector-curvature="0" />
        <path
           id="path7635"
           style="fill:#4f4c4c;fill-opacity:1;fill-rule:nonzero;stroke:none"
           d="m 343.313,421.168 c 3.652,2.754 4.785,4.648 1.167,9.453 -3.085,4.082 -4.785,4.219 -9.042,1.004 l 7.875,-10.457 z m 7.773,-33.145 -32.523,43.145 12.816,9.648 c 9.219,6.942 16.387,7.442 23.941,-2.597 7.524,-9.973 6.45,-15.762 -3.98,-23.625 l -1.953,-1.473 12.676,-16.816 -10.977,-8.282"
           inkscape:connector-curvature="0" />
        <path
           id="path7637"
           style="fill:#4f4c4c;fill-opacity:1;fill-rule:nonzero;stroke:none"
           d="m 381.277,410.785 -32.5,43.137 24.668,18.594 6.7,-8.899 -13.282,-10.008 5.532,-7.324 10.972,8.262 6.977,-9.25 -10.981,-8.27 6.328,-8.41 13.965,10.52 6.977,-9.258 -25.356,-19.094"
           inkscape:connector-curvature="0" />
        <path
           id="path7639"
           style="fill:#4f4c4c;fill-opacity:1;fill-rule:nonzero;stroke:none"
           d="m 412.883,452.867 c 1.93,-2.59 3.926,-2.695 5.68,-1.367 1.757,1.328 2.23,3.27 0.277,5.859 l -3.227,4.266 -2.847,-2.148 -6.055,8.046 14.219,10.723 18.062,-23.973 -5.816,-4.386 -3.34,1.054 c -0.844,-3.828 -2.695,-6.726 -6.074,-9.285 -11.313,-8.527 -17.461,-4.863 -30.278,12.129 -12.285,16.289 -12.871,25.254 -1.89,33.524 6.094,4.601 13.301,6.445 19.336,2.519 1.89,-1.219 3.711,-3.23 6.343,-6.707 l -11.382,-8.586 -1.899,2.531 c -1.949,2.579 -3.941,2.676 -5.699,1.348 -1.762,-1.32 -2.207,-3.262 -0.273,-5.84 l 14.863,-19.707"
           inkscape:connector-curvature="0" />
        <path
           id="path7641"
           style="fill:#4f4c4c;fill-opacity:1;fill-rule:nonzero;stroke:none"
           d="m 445.613,459.273 -32.5,43.133 11.391,8.586 32.5,-43.144 -11.391,-8.575"
           inkscape:connector-curvature="0" />
        <path
           id="path7643"
           style="fill:#4f4c4c;fill-opacity:1;fill-rule:nonzero;stroke:none"
           d="m 470.145,516.754 c 3.671,2.754 4.804,4.637 1.171,9.441 -3.062,4.094 -4.761,4.231 -9.043,1.008 l 7.872,-10.449 z m 7.777,-33.145 -32.5,43.145 12.793,9.648 c 9.219,6.934 16.387,7.442 23.941,-2.597 7.524,-9.973 6.465,-15.762 -3.98,-23.625 l -1.953,-1.485 12.672,-16.816 -10.973,-8.27"
           inkscape:connector-curvature="0" />
        <path
           id="path7645"
           style="fill:#4f4c4c;fill-opacity:1;fill-rule:nonzero;stroke:none"
           d="m -18.7305,17.9492 -32.5078,43.1367 24.6563,18.5821 6.6992,-8.8867 -13.2813,-10.0118 5.5274,-7.332 10.9765,8.2734 6.9727,-9.25 -10.9766,-8.2812 6.336,-8.3984 L -0.371094,46.2891 6.60156,37.043 -18.7305,17.9492"
           inkscape:connector-curvature="0" />
        <path
           id="path7647"
           style="fill:#4f4c4c;fill-opacity:1;fill-rule:nonzero;stroke:none"
           d="m 12.8516,60.0195 c 1.9414,-2.5781 3.9257,-2.6836 5.6914,-1.3593 1.7578,1.3281 2.2187,3.2734 0.2656,5.8515 L 15.5938,68.7773 12.7422,66.6406 6.67969,74.6875 20.9063,85.4102 38.9727,61.4375 33.1563,57.0508 29.8047,58.0977 C 28.9648,54.2773 27.1172,51.3672 23.7305,48.8164 12.4219,40.293 6.26953,43.9453 -6.54297,60.9453 -18.8203,77.2266 -19.4141,86.1992 -8.4375,94.4727 c 6.09375,4.5898 13.3125,6.4453 19.3438,2.5195 1.8867,-1.2227 3.7109,-3.2305 6.3398,-6.7188 L 5.85938,81.6992 3.96484,84.2188 C 2.01172,86.7969 0.03125,86.9023 -1.73828,85.5742 -3.49609,84.2461 -3.94531,82.3047 -2,79.7266 L 12.8516,60.0195"
           inkscape:connector-curvature="0" />
        <path
           id="path7649"
           style="fill:#4f4c4c;fill-opacity:1;fill-rule:nonzero;stroke:none"
           d="M 45.6055,66.4258 13.0938,109.57 24.4805,118.145 56.9922,75 45.6055,66.4258"
           inkscape:connector-curvature="0" />
        <path
           id="path7651"
           style="fill:#4f4c4c;fill-opacity:1;fill-rule:nonzero;stroke:none"
           d="m 70.1367,123.906 c 3.6602,2.766 4.7852,4.649 1.1602,9.453 -3.0742,4.09 -4.7735,4.219 -9.0391,1.004 l 7.8789,-10.457 z m 7.7656,-33.1443 -32.5117,43.1443 12.8125,9.649 c 9.2071,6.953 16.3789,7.441 23.9375,-2.586 7.5196,-9.973 6.461,-15.766 -3.9765,-23.625 l -1.961,-1.485 12.6758,-16.816 -10.9766,-8.2813"
           inkscape:connector-curvature="0" />
        <path
           id="path7653"
           style="fill:#4f4c4c;fill-opacity:1;fill-rule:nonzero;stroke:none"
           d="m 108.113,113.535 -32.5075,43.137 24.6605,18.582 6.699,-8.887 -13.2853,-10.012 5.5312,-7.332 10.9771,8.274 6.968,-9.25 -10.972,-8.281 6.336,-8.411 13.957,10.52 6.968,-9.246 -25.332,-19.094"
           inkscape:connector-curvature="0" />
        <path
           id="path7655"
           style="fill:#4f4c4c;fill-opacity:1;fill-rule:nonzero;stroke:none"
           d="m 139.695,155.605 c 1.946,-2.578 3.926,-2.683 5.696,-1.359 1.757,1.328 2.214,3.274 0.261,5.852 l -3.211,4.265 -2.851,-2.136 -6.067,8.046 14.243,10.723 18.062,-23.976 -5.828,-4.383 -3.352,1.047 c -0.835,-3.821 -2.683,-6.731 -6.074,-9.282 -11.304,-8.523 -17.461,-4.871 -30.269,12.129 -12.278,16.282 -12.871,25.254 -1.899,33.528 6.106,4.589 13.313,6.445 19.348,2.519 1.887,-1.223 3.711,-3.23 6.34,-6.719 l -11.391,-8.574 -1.89,2.52 c -1.958,2.578 -3.938,2.683 -5.708,1.355 -1.753,-1.324 -2.207,-3.269 -0.261,-5.847 l 14.851,-19.708"
           inkscape:connector-curvature="0" />
        <path
           id="path7657"
           style="fill:#4f4c4c;fill-opacity:1;fill-rule:nonzero;stroke:none"
           d="m 172.449,162.012 -32.508,43.144 11.387,8.574 32.512,-43.144 -11.391,-8.574"
           inkscape:connector-curvature="0" />
        <path
           id="path7659"
           style="fill:#4f4c4c;fill-opacity:1;fill-rule:nonzero;stroke:none"
           d="m 196.98,219.492 c 3.665,2.766 4.79,4.649 1.165,9.453 -3.079,4.09 -4.766,4.219 -9.043,1.004 l 7.878,-10.457 z m 7.778,-33.144 -32.512,43.144 12.805,9.649 c 9.219,6.953 16.375,7.441 23.933,-2.586 7.52,-9.973 6.465,-15.766 -3.972,-23.625 l -1.965,-1.485 12.676,-16.816 -10.965,-8.281"
           inkscape:connector-curvature="0" />
        <path
           id="path7661"
           style="fill:#4f4c4c;fill-opacity:1;fill-rule:nonzero;stroke:none"
           d="m 234.949,209.121 -32.5,43.137 24.66,18.582 6.7,-8.887 -13.282,-10.012 5.528,-7.332 10.965,8.274 6.972,-9.25 -10.965,-8.281 6.336,-8.411 13.95,10.52 6.992,-9.246 -25.356,-19.094"
           inkscape:connector-curvature="0" />
        <path
           id="path7663"
           style="fill:#4f4c4c;fill-opacity:1;fill-rule:nonzero;stroke:none"
           d="m 266.531,251.191 c 1.953,-2.578 3.949,-2.683 5.703,-1.355 1.758,1.324 2.207,3.269 0.278,5.848 l -3.227,4.265 -2.847,-2.136 -6.055,8.046 14.219,10.723 18.062,-23.977 -5.816,-4.382 -3.364,1.047 c -0.839,-3.821 -2.671,-6.731 -6.074,-9.282 -11.305,-8.523 -17.461,-4.871 -30.269,12.129 -12.27,16.281 -12.864,25.254 -1.899,33.528 6.113,4.589 13.321,6.445 19.36,2.519 1.875,-1.223 3.711,-3.23 6.328,-6.719 l -11.367,-8.574 -1.918,2.52 c -1.93,2.578 -3.922,2.683 -5.68,1.355 -1.777,-1.324 -2.231,-3.269 -0.277,-5.848 l 14.843,-19.707"
           inkscape:connector-curvature="0" />
        <path
           id="path7665"
           style="fill:#4f4c4c;fill-opacity:1;fill-rule:nonzero;stroke:none"
           d="m 299.285,257.598 -32.5,43.144 11.367,8.571 32.524,-43.141 -11.391,-8.574"
           inkscape:connector-curvature="0" />
        <path
           id="path7667"
           style="fill:#4f4c4c;fill-opacity:1;fill-rule:nonzero;stroke:none"
           d="m 323.816,315.074 c 3.657,2.754 4.789,4.649 1.172,9.453 -3.086,4.082 -4.785,4.219 -9.043,1.004 l 7.871,-10.457 z m 7.778,-33.14 -32.524,43.14 12.817,9.649 c 9.218,6.941 16.383,7.441 23.941,-2.598 7.524,-9.973 6.445,-15.754 -3.98,-23.613 l -1.953,-1.485 12.671,-16.812 -10.972,-8.281"
           inkscape:connector-curvature="0" />
        <path
           id="path7669"
           style="fill:#4f4c4c;fill-opacity:1;fill-rule:nonzero;stroke:none"
           d="m 361.785,304.691 -32.5,43.137 24.668,18.594 6.699,-8.899 -13.281,-10.007 5.527,-7.325 10.981,8.262 6.973,-9.25 -10.981,-8.269 6.328,-8.411 13.969,10.52 6.973,-9.258 -25.356,-19.094"
           inkscape:connector-curvature="0" />
        <path
           id="path7671"
           style="fill:#4f4c4c;fill-opacity:1;fill-rule:nonzero;stroke:none"
           d="m 393.391,346.773 c 1.929,-2.589 3.922,-2.687 5.679,-1.367 1.758,1.328 2.231,3.27 0.278,5.86 l -3.227,4.265 -2.851,-2.148 -6.051,8.058 14.219,10.723 18.066,-23.984 -5.82,-4.387 -3.34,1.055 c -0.84,-3.828 -2.699,-6.727 -6.074,-9.278 -11.309,-8.523 -17.461,-4.871 -30.278,12.129 -12.281,16.281 -12.871,25.246 -1.89,33.528 6.089,4.589 13.296,6.445 19.336,2.519 1.89,-1.23 3.707,-3.242 6.343,-6.719 l -11.386,-8.586 -1.891,2.532 c -1.953,2.578 -3.945,2.675 -5.703,1.347 -1.758,-1.32 -2.207,-3.261 -0.278,-5.84 l 14.868,-19.707"
           inkscape:connector-curvature="0" />
        <path
           id="path7673"
           style="fill:#4f4c4c;fill-opacity:1;fill-rule:nonzero;stroke:none"
           d="m 426.145,353.18 -32.524,43.144 11.391,8.574 32.5,-43.144 -11.367,-8.574"
           inkscape:connector-curvature="0" />
        <path
           id="path7675"
           style="fill:#4f4c4c;fill-opacity:1;fill-rule:nonzero;stroke:none"
           d="m 450.676,410.66 c 3.648,2.754 4.785,4.649 1.148,9.453 -3.062,4.082 -4.761,4.219 -9.043,1.004 l 7.895,-10.457 z m 7.754,-33.144 -32.5,43.144 12.808,9.649 c 9.2,6.941 16.367,7.441 23.93,-2.598 7.52,-9.973 6.465,-15.754 -3.969,-23.613 l -1.969,-1.485 12.672,-16.828 -10.972,-8.269"
           inkscape:connector-curvature="0" />
        <path
           id="path7677"
           style="fill:#4f4c4c;fill-opacity:1;fill-rule:nonzero;stroke:none"
           d="m 488.645,400.277 -32.5,43.137 24.648,18.594 6.695,-8.899 -13.277,-10.007 5.523,-7.325 10.981,8.262 6.973,-9.25 -10.977,-8.269 6.348,-8.411 13.945,10.52 6.973,-9.258 -25.332,-19.094"
           inkscape:connector-curvature="0" />
        <path
           id="path7679"
           style="fill:#4f4c4c;fill-opacity:1;fill-rule:nonzero;stroke:none"
           d="m 520.227,442.359 c 1.953,-2.589 3.945,-2.687 5.703,-1.367 1.758,1.328 2.207,3.27 0.254,5.86 l -3.204,4.265 -2.851,-2.148 -6.074,8.058 14.238,10.723 18.062,-23.984 -5.835,-4.387 -3.34,1.055 c -0.84,-3.829 -2.676,-6.727 -6.075,-9.286 -11.308,-8.515 -17.46,-4.863 -30.277,12.137 -12.265,16.281 -12.867,25.246 -1.89,33.528 6.089,4.589 13.32,6.445 19.355,2.519 1.875,-1.23 3.711,-3.242 6.324,-6.719 l -11.387,-8.586 -1.89,2.532 c -1.953,2.578 -3.93,2.675 -5.703,1.347 -1.758,-1.32 -2.207,-3.261 -0.254,-5.84 l 14.844,-19.707"
           inkscape:connector-curvature="0" />
        <path
           id="path7681"
           style="fill:#4f4c4c;fill-opacity:1;fill-rule:nonzero;stroke:none"
           d="M 26.1133,-39.668 -6.39453,3.46875 4.98828,12.0508 37.4883,-31.0938 26.1133,-39.668"
           inkscape:connector-curvature="0" />
        <path
           id="path7683"
           style="fill:#4f4c4c;fill-opacity:1;fill-rule:nonzero;stroke:none"
           d="m 50.6445,17.8125 c 3.6602,2.7617 4.7969,4.6484 1.1719,9.4531 -3.0781,4.0821 -4.7773,4.2188 -9.043,1.0039 l 7.8711,-10.457 z m 7.7618,-33.1445 -32.5,43.1445 12.8046,9.6484 c 9.2188,6.9414 16.3789,7.4414 23.9454,-2.5898 C 70.1641,24.9023 69.1094,19.1094 58.6719,11.25 L 56.7109,9.76563 69.3867,-7.05078 58.4063,-15.332"
           inkscape:connector-curvature="0" />
        <path
           id="path7685"
           style="fill:#4f4c4c;fill-opacity:1;fill-rule:nonzero;stroke:none"
           d="M 88.6211,7.44141 56.1133,50.5664 80.7734,69.1602 87.4727,60.2656 74.1992,50.2539 l 5.5274,-7.3242 10.9765,8.2695 6.9727,-9.2461 -10.9766,-8.2812 6.3281,-8.4063 13.9527,10.5157 6.973,-9.25 L 88.6211,7.44141"
           inkscape:connector-curvature="0" />
        <path
           id="path7687"
           style="fill:#4f4c4c;fill-opacity:1;fill-rule:nonzero;stroke:none"
           d="m 120.203,49.5117 c 1.953,-2.5859 3.938,-2.6953 5.695,-1.3672 1.766,1.3282 2.215,3.2735 0.274,5.8594 l -3.223,4.2656 -2.844,-2.1367 -6.062,8.0469 14.227,10.7226 18.07,-23.9726 -5.832,-4.3867 -3.352,1.0468 c -0.828,-3.8281 -2.676,-6.7304 -6.062,-9.289 -11.321,-8.5156 -17.473,-4.8633 -30.281,12.1367 -12.27,16.2813 -12.8638,25.2461 -1.8989,33.5273 6.1059,4.5899 13.3129,6.4454 19.3559,2.5196 1.875,-1.2305 3.71,-3.2305 6.339,-6.7188 l -11.386,-8.5742 -1.907,2.5195 c -1.941,2.5782 -3.933,2.6758 -5.691,1.3477 -1.77,-1.3281 -2.219,-3.2617 -0.266,-5.8398 l 14.844,-19.7071"
           inkscape:connector-curvature="0" />
        <path
           id="path7689"
           style="fill:#4f4c4c;fill-opacity:1;fill-rule:nonzero;stroke:none"
           d="m 152.961,55.918 -32.512,43.1367 11.387,8.5823 32.512,-43.1448 -11.387,-8.5742"
           inkscape:connector-curvature="0" />
        <path
           id="path7691"
           style="fill:#4f4c4c;fill-opacity:1;fill-rule:nonzero;stroke:none"
           d="m 177.488,113.398 c 3.664,2.762 4.797,4.649 1.172,9.454 -3.074,4.082 -4.773,4.218 -9.043,1.003 l 7.871,-10.457 z m 7.778,-33.1441 -32.512,43.1441 12.805,9.649 c 9.214,6.941 16.375,7.441 23.945,-2.586 7.508,-9.973 6.453,-15.766 -3.984,-23.625 l -1.965,-1.484 12.675,-16.8168 -10.964,-8.2813"
           inkscape:connector-curvature="0" />
        <path
           id="path7693"
           style="fill:#4f4c4c;fill-opacity:1;fill-rule:nonzero;stroke:none"
           d="m 215.469,103.027 -32.508,43.125 24.656,18.594 6.699,-8.894 -13.269,-10.012 5.523,-7.324 10.981,8.269 6.969,-9.246 -10.973,-8.281 6.324,-8.406 13.957,10.515 6.961,-9.25 -25.32,-19.09"
           inkscape:connector-curvature="0" />
        <path
           id="path7695"
           style="fill:#4f4c4c;fill-opacity:1;fill-rule:nonzero;stroke:none"
           d="m 247.039,145.098 c 1.953,-2.586 3.945,-2.696 5.703,-1.368 1.762,1.329 2.207,3.274 0.278,5.86 l -3.223,4.265 -2.856,-2.136 -6.05,8.047 14.214,10.722 18.071,-23.972 -5.821,-4.387 -3.363,1.047 c -0.816,-3.828 -2.676,-6.731 -6.054,-9.289 -11.329,-8.516 -17.477,-4.864 -30.282,12.136 -12.265,16.282 -12.859,25.247 -1.886,33.528 6.093,4.59 13.3,6.445 19.335,2.519 1.875,-1.23 3.711,-3.23 6.348,-6.718 l -11.387,-8.575 -1.914,2.52 c -1.929,2.578 -3.914,2.676 -5.679,1.348 -1.758,-1.329 -2.219,-3.262 -0.266,-5.84 l 14.832,-19.707"
           inkscape:connector-curvature="0" />
        <path
           id="path7697"
           style="fill:#4f4c4c;fill-opacity:1;fill-rule:nonzero;stroke:none"
           d="m 279.797,151.504 -32.5,43.137 11.387,8.574 32.5,-43.137 -11.387,-8.574"
           inkscape:connector-curvature="0" />
        <path
           id="path7699"
           style="fill:#4f4c4c;fill-opacity:1;fill-rule:nonzero;stroke:none"
           d="m 304.324,208.984 c 3.672,2.754 4.785,4.649 1.172,9.454 -3.086,4.082 -4.766,4.218 -9.043,1.003 l 7.871,-10.457 z m 7.778,-33.144 -32.5,43.137 12.793,9.656 c 9.214,6.933 16.382,7.441 23.945,-2.598 7.515,-9.972 6.465,-15.762 -3.985,-23.625 l -1.957,-1.472 12.676,-16.817 -10.972,-8.281"
           inkscape:connector-curvature="0" />
        <path
           id="path7701"
           style="fill:#4f4c4c;fill-opacity:1;fill-rule:nonzero;stroke:none"
           d="m 342.297,198.605 -32.5,43.133 24.668,18.582 6.695,-8.894 -13.277,-10 5.523,-7.324 10.981,8.261 6.968,-9.25 -10.972,-8.269 6.328,-8.406 13.965,10.515 6.969,-9.258 -25.348,-19.09"
           inkscape:connector-curvature="0" />
        <path
           id="path7703"
           style="fill:#4f4c4c;fill-opacity:1;fill-rule:nonzero;stroke:none"
           d="m 373.895,240.684 c 1.957,-2.598 3.925,-2.696 5.683,-1.368 1.777,1.329 2.231,3.274 0.277,5.86 l -3.222,4.265 -2.832,-2.144 -6.074,8.047 14.238,10.719 18.047,-23.973 -5.824,-4.387 -3.336,1.059 c -0.84,-3.828 -2.7,-6.731 -6.079,-9.289 -11.304,-8.528 -17.46,-4.864 -30.269,12.129 -12.27,16.289 -12.871,25.253 -1.899,33.527 6.094,4.598 13.301,6.441 19.336,2.516 1.899,-1.219 3.711,-3.231 6.352,-6.707 l -11.391,-8.583 -1.89,2.516 c -1.953,2.59 -3.949,2.688 -5.703,1.359 -1.758,-1.328 -2.207,-3.261 -0.254,-5.847 l 14.84,-19.699"
           inkscape:connector-curvature="0" />
        <path
           id="path7705"
           style="fill:#4f4c4c;fill-opacity:1;fill-rule:nonzero;stroke:none"
           d="m 406.648,247.09 -32.515,43.137 11.387,8.574 32.5,-43.137 -11.372,-8.574"
           inkscape:connector-curvature="0" />
        <path
           id="path7707"
           style="fill:#4f4c4c;fill-opacity:1;fill-rule:nonzero;stroke:none"
           d="m 431.184,304.566 c 3.652,2.754 4.785,4.649 1.152,9.454 -3.066,4.082 -4.77,4.218 -9.023,1.003 l 7.871,-10.457 z m 7.754,-33.14 -32.5,43.129 12.808,9.66 c 9.223,6.933 16.367,7.441 23.945,-2.598 7.5,-9.972 6.45,-15.762 -3.98,-23.621 l -1.977,-1.473 12.676,-16.816 -10.972,-8.281"
           inkscape:connector-curvature="0" />
        <path
           id="path7709"
           style="fill:#4f4c4c;fill-opacity:1;fill-rule:nonzero;stroke:none"
           d="m 469.148,294.188 -32.5,43.132 24.653,18.582 6.695,-8.894 -13.262,-10 5.532,-7.324 10.957,8.261 6.968,-9.25 -10.957,-8.269 6.329,-8.41 13.949,10.519 6.968,-9.258 -25.332,-19.089"
           inkscape:connector-curvature="0" />
        <path
           id="path7711"
           style="fill:#4f4c4c;fill-opacity:1;fill-rule:nonzero;stroke:none"
           d="m 500.73,336.266 c 1.958,-2.598 3.95,-2.696 5.708,-1.368 1.753,1.329 2.207,3.27 0.273,5.86 l -3.227,4.265 -2.847,-2.148 -6.059,8.047 14.223,10.723 18.062,-23.973 -5.84,-4.387 -3.335,1.055 c -0.825,-3.828 -2.676,-6.727 -6.055,-9.285 -11.328,-8.528 -17.485,-4.864 -30.293,12.129 -12.27,16.289 -12.871,25.254 -1.899,33.523 6.118,4.602 13.325,6.445 19.36,2.52 1.875,-1.219 3.711,-3.231 6.328,-6.707 l -11.367,-8.586 -1.914,2.519 c -1.938,2.59 -3.926,2.688 -5.688,1.36 -1.758,-1.329 -2.222,-3.262 -0.269,-5.852 l 14.839,-19.695"
           inkscape:connector-curvature="0" />
        <path
           id="path7713"
           style="fill:#4f4c4c;fill-opacity:1;fill-rule:nonzero;stroke:none"
           d="m 157.988,7.30469 c 3.66,2.75391 4.793,4.64841 1.172,9.45311 -3.074,4.082 -4.773,4.2188 -9.043,0.9961 l 7.871,-10.44921 z m 7.774,-33.14449 -32.508,43.1445 12.809,9.6484 c 9.21,6.9414 16.378,7.4414 23.937,-2.5976 7.52,-9.9688 6.453,-15.76175 -3.977,-23.625031 l -1.968,-1.484375 12.683,-16.812494 -10.976,-8.2734"
           inkscape:connector-curvature="0" />
        <path
           id="path7715"
           style="fill:#4f4c4c;fill-opacity:1;fill-rule:nonzero;stroke:none"
           d="m 195.969,-3.07422 -32.512,43.13282 24.668,18.5859 6.699,-8.8867 -13.281,-10.0117 5.527,-7.3359 10.977,8.2734 6.973,-9.2461 -10.977,-8.2734 6.328,-8.4063 13.965,10.5156 6.973,-9.2578 -25.34,-19.08982"
           inkscape:connector-curvature="0" />
        <path
           id="path7717"
           style="fill:#4f4c4c;fill-opacity:1;fill-rule:nonzero;stroke:none"
           d="m 227.559,39.0039 c 1.945,-2.5859 3.925,-2.6953 5.695,-1.3672 1.758,1.3281 2.207,3.2696 0.262,5.8594 l -3.211,4.2578 -2.856,-2.1406 -6.062,8.0469 14.226,10.7265 18.071,-23.9765 -5.825,-4.3868 -3.355,1.0469 c -0.844,-3.8164 -2.68,-6.7187 -6.074,-9.2773 -11.313,-8.5235 -17.461,-4.8711 -30.278,12.1289 -12.261,16.289 -12.859,25.2539 -1.882,33.5234 6.093,4.6016 13.308,6.4492 19.343,2.5235 1.887,-1.2227 3.711,-3.2344 6.34,-6.7227 l -11.387,-8.5703 -1.894,2.5273 c -1.953,2.5782 -3.938,2.6758 -5.703,1.3477 -1.758,-1.3281 -2.207,-3.2617 -0.266,-5.8399 l 14.856,-19.707"
           inkscape:connector-curvature="0" />
        <path
           id="path7719"
           style="fill:#4f4c4c;fill-opacity:1;fill-rule:nonzero;stroke:none"
           d="m 260.305,45.4102 -32.5,43.1367 11.367,8.582 32.516,-43.1445 -11.383,-8.5742"
           inkscape:connector-curvature="0" />
        <path
           id="path7721"
           style="fill:#4f4c4c;fill-opacity:1;fill-rule:nonzero;stroke:none"
           d="m 284.836,102.891 c 3.648,2.754 4.781,4.648 1.172,9.453 -3.086,4.082 -4.785,4.219 -9.043,0.996 l 7.871,-10.449 z m 7.769,-33.1449 -32.515,43.1449 12.808,9.648 c 9.219,6.941 16.387,7.441 23.95,-2.598 7.515,-9.968 6.441,-15.761 -3.989,-23.6246 l -1.968,-1.4805 12.695,-16.8164 -10.981,-8.2734"
           inkscape:connector-curvature="0" />
        <path
           id="path7723"
           style="fill:#4f4c4c;fill-opacity:1;fill-rule:nonzero;stroke:none"
           d="m 322.805,92.5117 -32.5,43.1333 24.668,18.585 6.699,-8.886 -13.281,-10.012 5.523,-7.336 10.981,8.274 6.968,-9.25 -10.972,-8.27 6.328,-8.418 13.965,10.527 6.968,-9.257 -25.347,-19.0903"
           inkscape:connector-curvature="0" />
        <path
           id="path7725"
           style="fill:#4f4c4c;fill-opacity:1;fill-rule:nonzero;stroke:none"
           d="m 354.402,134.59 c 1.938,-2.586 3.926,-2.695 5.688,-1.367 1.758,1.328 2.223,3.269 0.269,5.859 l -3.218,4.258 -2.856,-2.141 -6.055,8.047 14.219,10.727 18.071,-23.977 -5.825,-4.387 -3.34,1.047 c -0.835,-3.816 -2.695,-6.718 -6.074,-9.277 -11.304,-8.524 -17.461,-4.871 -30.269,12.129 -12.285,16.289 -12.871,25.254 -1.899,33.523 6.098,4.602 13.305,6.449 19.336,2.524 1.899,-1.223 3.711,-3.235 6.352,-6.719 l -11.391,-8.574 -1.89,2.527 c -1.957,2.578 -3.95,2.676 -5.707,1.348 -1.754,-1.328 -2.208,-3.262 -0.27,-5.84 l 14.859,-19.707"
           inkscape:connector-curvature="0" />
        <path
           id="path7727"
           style="fill:#4f4c4c;fill-opacity:1;fill-rule:nonzero;stroke:none"
           d="m 387.141,140.984 -32.5,43.149 11.382,8.57 32.5,-43.133 -11.382,-8.586"
           inkscape:connector-curvature="0" />
        <path
           id="path7729"
           style="fill:#4f4c4c;fill-opacity:1;fill-rule:nonzero;stroke:none"
           d="m 411.688,198.477 c 3.656,2.753 4.789,4.648 1.156,9.453 -3.071,4.082 -4.77,4.218 -9.043,0.996 l 7.887,-10.449 z m 7.753,-33.145 -32.5,43.137 12.793,9.656 c 9.219,6.934 16.387,7.441 23.95,-2.598 7.515,-9.98 6.461,-15.761 -3.989,-23.632 l -1.953,-1.473 12.68,-16.817 -10.981,-8.273"
           inkscape:connector-curvature="0" />
        <path
           id="path7731"
           style="fill:#4f4c4c;fill-opacity:1;fill-rule:nonzero;stroke:none"
           d="m 449.656,188.086 -32.515,43.144 24.668,18.583 6.699,-8.895 -13.281,-10 5.527,-7.332 10.976,8.269 6.969,-9.257 -10.972,-8.262 6.328,-8.418 13.965,10.527 6.968,-9.257 -25.332,-19.102"
           inkscape:connector-curvature="0" />
        <path
           id="path7733"
           style="fill:#4f4c4c;fill-opacity:1;fill-rule:nonzero;stroke:none"
           d="m 481.238,230.164 c 1.953,-2.586 3.93,-2.684 5.688,-1.355 1.773,1.328 2.222,3.261 0.269,5.847 l -3.218,4.27 -2.832,-2.149 -6.079,8.047 14.243,10.723 18.062,-23.965 -5.84,-4.394 -3.34,1.054 c -0.836,-3.828 -2.671,-6.726 -6.074,-9.277 -11.304,-8.535 -17.461,-4.871 -30.269,12.129 -12.27,16.289 -12.871,25.254 -1.899,33.515 6.098,4.602 13.305,6.446 19.36,2.52 1.875,-1.211 3.711,-3.223 6.328,-6.707 l -11.391,-8.586 -1.891,2.527 c -1.957,2.59 -3.949,2.688 -5.707,1.36 -1.753,-1.328 -2.207,-3.262 -0.253,-5.852 l 14.843,-19.707"
           inkscape:connector-curvature="0" />
        <path
           id="path7735"
           style="fill:#4f4c4c;fill-opacity:1;fill-rule:nonzero;stroke:none"
           d="m 513.992,236.57 -32.5,43.149 11.367,8.574 32.524,-43.137 -11.391,-8.586"
           inkscape:connector-curvature="0" />
        <path
           id="path7737"
           style="fill:#4f4c4c;fill-opacity:1;fill-rule:nonzero;stroke:none"
           d="m 265.344,-3.20313 c 3.648,2.753911 4.785,4.64844 1.172,9.45313 -3.086,4.082 -4.786,4.2188 -9.043,0.99609 l 7.871,-10.44922 z m 7.769,-33.14457 -32.515,43.14458 12.808,9.64842 c 9.223,6.9453 16.391,7.4414 23.949,-2.5976 7.516,-9.96879 6.461,-15.76176 -3.988,-23.61333 l -1.953,-1.48437 12.68,-16.8242 -10.981,-8.2735"
           inkscape:connector-curvature="0" />
        <path
           id="path7739"
           style="fill:#4f4c4c;fill-opacity:1;fill-rule:nonzero;stroke:none"
           d="m 303.313,-13.582 -32.5,43.1328 24.667,18.5859 6.7,-8.8906 -13.285,-10.0078 5.531,-7.3242 10.972,8.2734 6.973,-9.2578 -10.976,-8.2734 6.332,-8.41021 13.961,10.51951 6.972,-9.25779 -25.347,-19.08981"
           inkscape:connector-curvature="0" />
        <path
           id="path7741"
           style="fill:#4f4c4c;fill-opacity:1;fill-rule:nonzero;stroke:none"
           d="m 334.91,28.4961 c 1.938,-2.5898 3.93,-2.6953 5.688,-1.3672 1.773,1.3281 2.222,3.2695 0.269,5.8594 l -3.222,4.2578 -2.832,-2.1406 -6.075,8.0468 14.223,10.7266 18.062,-23.9766 -5.82,-4.3828 -3.34,1.0508 c -0.84,-3.8281 -2.691,-6.7265 -6.07,-9.2851 -11.313,-8.51567 -17.465,-4.8633 -30.273,12.1289 -12.266,16.289 -12.875,25.2539 -1.899,33.5234 6.098,4.6016 13.305,6.4492 19.34,2.5313 1.894,-1.2305 3.711,-3.2422 6.348,-6.7305 l -11.387,-8.5703 -1.899,2.5273 c -1.953,2.5781 -3.945,2.6758 -5.703,1.3477 -1.757,-1.3282 -2.207,-3.2617 -0.269,-5.8399 l 14.859,-19.707"
           inkscape:connector-curvature="0" />
        <path
           id="path7743"
           style="fill:#4f4c4c;fill-opacity:1;fill-rule:nonzero;stroke:none"
           d="m 367.645,34.8945 -32.5,43.1407 11.386,8.5742 32.5,-43.1328 -11.386,-8.5821"
           inkscape:connector-curvature="0" />
        <path
           id="path7745"
           style="fill:#4f4c4c;fill-opacity:1;fill-rule:nonzero;stroke:none"
           d="m 392.195,92.3828 c 3.657,2.7539 4.785,4.6485 1.157,9.4532 -3.071,4.082 -4.766,4.219 -9.043,0.996 l 7.886,-10.4492 z m 7.754,-33.1445 -32.5,43.1327 12.793,9.66 c 9.223,6.934 16.391,7.442 23.946,-2.597 7.523,-9.9809 6.464,-15.7621 -3.961,-23.6215 l -1.973,-1.4766 12.676,-16.8242 -10.981,-8.2734"
           inkscape:connector-curvature="0" />
        <path
           id="path7747"
           style="fill:#4f4c4c;fill-opacity:1;fill-rule:nonzero;stroke:none"
           d="m 430.168,81.9922 -32.523,43.1448 24.668,18.586 6.703,-8.899 -13.286,-10 5.532,-7.324 10.972,8.262 6.977,-9.258 -10.981,-8.262 6.348,-8.4061 13.945,10.5161 6.973,-9.258 -25.328,-19.1018"
           inkscape:connector-curvature="0" />
        <path
           id="path7749"
           style="fill:#4f4c4c;fill-opacity:1;fill-rule:nonzero;stroke:none"
           d="m 461.746,124.082 c 1.953,-2.598 3.945,-2.695 5.703,-1.367 1.762,1.328 2.207,3.262 0.254,5.859 l -3.199,4.258 -2.856,-2.148 -6.074,8.054 14.239,10.727 18.07,-23.977 -5.84,-4.394 -3.344,1.062 c -0.84,-3.828 -2.676,-6.726 -6.07,-9.285 -11.313,-8.523 -17.461,-4.863 -30.274,12.129 -12.265,16.289 -12.875,25.254 -1.894,33.523 6.094,4.602 13.301,6.45 19.352,2.524 1.875,-1.223 3.71,-3.234 6.332,-6.723 l -11.387,-8.582 -1.899,2.528 c -1.953,2.589 -3.941,2.687 -5.703,1.359 -1.758,-1.328 -2.207,-3.262 -0.254,-5.852 l 14.844,-19.695"
           inkscape:connector-curvature="0" />
        <path
           id="path7751"
           style="fill:#4f4c4c;fill-opacity:1;fill-rule:nonzero;stroke:none"
           d="m 494.504,130.48 -32.524,43.141 11.387,8.574 32.524,-43.132 -11.387,-8.583"
           inkscape:connector-curvature="0" />
        <path
           id="path7753"
           style="fill:#4f4c4c;fill-opacity:1;fill-rule:nonzero;stroke:none"
           d="m 519.031,187.969 c 3.657,2.754 4.785,4.648 1.172,9.453 -3.086,4.082 -4.781,4.219 -9.043,0.996 l 7.871,-10.449 z m 7.778,-33.145 -32.524,43.137 12.817,9.656 c 9.214,6.934 16.382,7.442 23.945,-2.597 7.5,-9.981 6.465,-15.762 -3.984,-23.625 l -1.958,-1.473 12.676,-16.824 -10.972,-8.274"
           inkscape:connector-curvature="0" />
        <path
           id="path7755"
           style="fill:#4f4c4c;fill-opacity:1;fill-rule:nonzero;stroke:none"
           d="m 380.051,-8.17578 c 3.672,2.76562 4.785,4.64062 1.172,9.44531 -3.086,4.08985 -4.785,4.22656 -9.043,1.01563 l 7.871,-10.46094 z m 7.769,-33.14062 -32.5,43.14062 12.793,9.65238 c 9.223,6.9414 16.391,7.4414 23.95,-2.58988 7.515,-9.98047 6.46,-15.76172 -3.989,-23.63282 l -1.953,-1.4766 12.68,-16.8242 -10.981,-8.2695"
           inkscape:connector-curvature="0" />
        <path
           id="path7757"
           style="fill:#4f4c4c;fill-opacity:1;fill-rule:nonzero;stroke:none"
           d="m 418.035,-18.5547 -32.515,43.1445 24.668,18.5743 6.699,-8.8868 -13.282,-10 5.528,-7.3437 10.972,8.2695 6.973,-9.2461 -10.973,-8.2695 6.329,-8.410156 13.961,10.519536 6.972,-9.250005 -25.332,-19.101575"
           inkscape:connector-curvature="0" />
        <path
           id="path7759"
           style="fill:#4f4c4c;fill-opacity:1;fill-rule:nonzero;stroke:none"
           d="m 449.617,23.5156 c 1.938,-2.5781 3.93,-2.6875 5.688,-1.3593 1.758,1.3281 2.222,3.2734 0.269,5.8515 l -3.219,4.2774 -2.851,-2.1485 -6.059,8.0469 14.243,10.7227 18.066,-23.9649 -5.844,-4.3945 -3.34,1.0547 c -0.84,-3.8282 -2.691,-6.7383 -6.074,-9.2891 -11.308,-8.52344 -17.461,-4.87109 -30.269,12.1406 -12.289,16.2774 -12.872,25.2422 -1.899,33.5157 6.098,4.5898 13.305,6.4453 19.34,2.5195 1.895,-1.2188 3.711,-3.2227 6.348,-6.7188 l -11.387,-8.5742 -1.899,2.5195 c -1.953,2.5899 -3.945,2.6954 -5.703,1.3672 -1.757,-1.3281 -2.207,-3.2695 -0.269,-5.8593 l 14.859,-19.7071"
           inkscape:connector-curvature="0" />
        <path
           id="path7761"
           style="fill:#4f4c4c;fill-opacity:1;fill-rule:nonzero;stroke:none"
           d="m 482.371,29.9219 -32.516,43.1445 11.383,8.5742 32.5,-43.1328 -11.367,-8.5859"
           inkscape:connector-curvature="0" />
        <path
           id="path7763"
           style="fill:#4f4c4c;fill-opacity:1;fill-rule:nonzero;stroke:none"
           d="m 506.902,87.4102 c 3.657,2.7656 4.786,4.6406 1.157,9.4453 -3.071,4.0895 -4.766,4.2305 -9.028,1.0156 l 7.871,-10.4609 z m 7.778,-33.1407 -32.524,43.1328 12.817,9.6607 c 9.215,6.941 16.367,7.441 23.922,-2.59 7.523,-9.9808 6.464,-15.7621 -3.961,-23.6332 l -1.973,-1.4765 12.691,-16.8242 -10.972,-8.2696"
           inkscape:connector-curvature="0" />
        <path
           id="path7765"
           style="fill:#ffffff;fill-opacity:1;fill-rule:nonzero;stroke:none"
           d="m 259.719,348.121 c 0.078,-0.187 0.152,-0.305 0.238,-0.469 0.027,0.106 0.07,0.274 0.102,0.418 -0.204,-0.007 -0.34,0.02 -0.34,0.051 z M 64.1406,62.1484 c -0.0312,0.7032 -0.0742,1.3985 -0.0742,2.1211 0,-1.5351 0.0274,-2.1797 0.0742,-2.1211 z M 179.898,451.137 c 3.278,5.949 5.665,11.359 5.665,14.445 0,-2.434 -2.754,-7.551 -5.665,-14.445 z m 107.368,-306.41 c -0.11,0.046 -0.11,0.117 -0.203,0.214 l 0.82,0.215 c -0.238,-0.168 -0.403,-0.332 -0.617,-0.429 z m -96.731,111.429 c 0,3.867 0.211,5 0.488,5.274 -0.132,-10.985 -0.308,-11.075 -0.488,-5.274 z m 257.512,171.809 c 0,-2.727 -52.559,-60.332 -52.559,-63.918 0,-0.469 -8.066,-17.559 -34.343,-10.809 0,-14.043 -77.461,-30.722 -79.426,-27.062 9.676,9.394 50.84,56.113 50.84,59.035 0,0.859 14.14,19.168 7.07,24.266 0,15.566 -24.258,47.421 -24.258,44.882 0,-7.461 29.199,-32.109 -2.012,-64.324 0,4.754 -42.707,-46.769 -42.707,-46.574 -0.679,4.375 -1.226,-2.539 -1.464,-4.434 0,15.137 -4.532,-1.64 -9.231,8.625 -0.148,-0.527 -0.238,-0.968 -0.238,-1.3 -2.883,4.492 -5.793,-1.122 -7.692,-6.348 0,3.312 -4.062,-6.375 -4.062,4.062 -1.891,-3.445 -4.789,3.047 -7.692,1.125 -0.308,0.497 -0.609,0.907 -0.91,1.239 0.539,-0.02 0.91,-0.02 0.91,-0.02 0,-0.097 -5.953,19.824 -5.953,20.149 -4.984,7.703 -6.965,-1.184 -6.965,-0.918 0,-0.207 5.915,-18.664 5.961,-18.848 -1.531,-0.41 -2.515,0.332 -2.515,7.098 -0.203,-3.993 -0.66,-7.149 -1.168,-9.453 0,-0.84 -42.074,42.832 -42.074,43.964 -21.641,22.618 -14.239,47.168 -7.661,62.735 -7.16,-13.047 -18.609,-28.75 -18.609,-28.465 -7.043,-16.152 7.086,-29.484 7.086,-30.949 0,-2.625 42.348,-44.883 42.348,-54.961 0,1.847 7.465,-10.782 8.851,-5.067 -0.527,-4.933 -0.922,-7.531 -1.375,-7.355 0,-5.391 -79.371,22.734 -79.371,22.265 -26.262,1.516 -34.34,13.997 -34.34,16.075 0,4.531 -52.5192,58.711 -52.5192,69.804 -4.0665,-22.168 -1.043,-18.691 -1.043,-24.089 0,8.3 37.3789,-43.02 37.3789,-48.215 10.1445,-23.719 36.3833,-27.969 36.3833,-23.047 5.062,-2.059 86.917,-25.801 86.917,-25.301 l 0,-10.07 c 0,7.609 -129.3589,-8.602 -129.3589,-4.61 1.0078,-7.226 12.1445,-4.871 12.1445,-13.535 0,-0.293 112.8754,2.715 112.8754,-5.515 -1.703,-0.305 -11.426,-13.438 -14.938,-14.7 0.027,0.52 0.055,0.957 0.055,1.75 0,-0.812 -0.254,-1.379 -0.645,-1.847 -0.425,0.07 -0.675,0.468 -0.675,1.308 0,-0.672 -0.008,-1.172 -0.024,-1.804 -3.309,-2.012 -13.703,-0.93 -37.039,-10.305 0,-3.445 -28.277,-39.477 -28.277,-43.402 0,10.097 -58.6097,-62.649 -58.6097,-62.676 0,-12.703 -2.5156,-83.6526 -2.9727,-84.2776 0.3672,-10.8984 3.5899,-21.5429 13.0586,-27.5703 0,-4.3633 1.0078,80.6949 7.0821,106.9849 0,-9.239 44.4567,41.718 58.6097,71.386 0,-14.023 21.203,17.703 39.398,21.797 0,4.219 0.266,8.91 0.266,-1.582 -0.16,12.152 -0.196,2.383 -0.231,-2.598 0,0 -0.004,-0.031 -0.004,-0.039 0.926,-10.129 3.711,-40.156 3.711,-57.695 0,4.395 0.297,19.863 0.297,17.461 0,-16.855 0.035,-7.488 0.035,-5.703 4.172,-20.43 14.129,-32.149 24.848,-38.137 l 0,-0.008 c 0.359,-0.078 2.613,-0.683 2.613,-0.722 -0.293,-0.254 -0.332,-0.567 -0.683,-0.813 -0.715,0.52 -1.321,0.988 -1.93,1.485 -0.066,-3.563 -0.113,-5.047 -0.16,-5.809 0.609,3.711 2.164,1.68 4.347,-5.801 5.485,1.778 10.985,-5.195 15.879,1.895 6.629,-6.106 13.559,-2.735 18.723,-12.547 0.895,9.695 2.004,2.43 3.02,0.137 -0.329,9.617 -0.665,0.679 -0.993,5.085 0,4.708 0.887,3.145 2.45,-2.253 0.878,5.183 1.796,-4.114 2.781,10.378 6.988,-2.812 19.883,-2.492 31.812,3.868 0,5.605 0.11,6.386 0.141,-1.914 0,4.375 -0.023,10.097 -0.023,10.656 10.558,1.863 20.343,14.441 24.464,34.859 0,-4.961 4.024,56.481 4.024,45.254 0,0.742 0,1.125 -0.078,2.551 0.047,0.293 0.078,0.879 0.078,2.109 18.203,6.782 39.453,-19.211 39.453,-26.992 14.109,-18.203 58.574,-79.082 58.574,-69.258 6.094,-18.34 7.078,-101.2888 7.078,-101.4255 9.485,4.9688 12.746,25.3906 13.117,15.9102 -0.351,15.7109 -2.988,94.7733 -2.988,92.0393 0,1.738 -58.625,71.133 -58.625,68.789 0,-5.574 -28.289,35.172 -28.289,32.972 -22.383,12.5 -36.367,16.426 -41.758,16.524 -4.492,15.293 -10.754,11.496 -11.738,14.562 0,12.118 113.113,10.321 113.113,5.137 0,2.293 11.125,-0.09 12.129,9.363 0,1.114 -129.336,6.25 -129.336,7.442 l 0,15.429 c 0,0.743 81.828,25.938 86.887,15.84 0,14.219 26.25,14.348 36.395,32.149 0,-5.215 37.355,53.879 37.355,43.926 0,16.64 3.066,8.671 -0.996,20.695 z M 266.711,347.309 c 0,8.75 5.906,15.898 5.906,20.988 0,7.293 -1.965,8.484 -6.953,6.473 0,-12.54 -4.355,-22.403 -5.605,-26.7 1.406,0 6.652,0.684 6.652,-0.761 z m -55.66,-206.723 c -0.176,-1.094 -0.285,-2.656 -0.285,-4.824 0.14,4.328 0.207,3.496 0.285,4.824 z m -28.731,89.941 c -0.191,2.051 -0.312,3.36 -0.312,3.496 0,-4.296 0.281,-3.789 0.312,-3.496 z M 435.898,53.0977 c 0.02,-0.6368 0.04,-1.4258 0.04,-2.375 0,0.4218 -0.02,1.2812 -0.04,2.375 z M 211.086,146.484 c 0.035,-0.031 0.09,-0.058 0.125,-0.089 0,0.011 0,0.031 0,0.05 -0.027,0.008 -0.125,0.039 -0.125,0.039 z m 78.133,-11.328 c 0,0.84 0,2.207 0,3.797 0,-1.121 0,-2.351 0,-3.797"
           inkscape:connector-curvature="0" />
        <path
           id="path7767"
           style="fill:#231f20;fill-opacity:1;fill-rule:nonzero;stroke:none"
           d="m 490,10 -480,0 0,480 480,0 0,-480 z M 0,500 0,0 500,0 500,500 0,500"
           inkscape:connector-curvature="0" />
        <path
           id="path7769"
           style="fill:#ffffff;fill-opacity:1;fill-rule:nonzero;stroke:none"
           d="m 480,451.23 -4.648,0 0,22.657 -0.137,0 -7.969,-22.657 -3.789,0 -7.578,22.657 -0.137,0 0,-22.657 -4.648,0 0,28.77 7.383,0 7.168,-21.395 0.136,0 6.985,21.395 7.234,0 0,-28.77 z m -32.227,28.77 0,-3.719 -7.91,0 0,-25.051 -4.648,0 0,25.051 -7.91,0 0,3.719 20.468,0"
           inkscape:connector-curvature="0" />
      </g>
    </g>
  </g>
</svg>
