<?xml version="1.0" encoding="utf-8"?>
<!-- Generator: Adobe Illustrator 15.0.0, SVG Export Plug-In . SVG Version: 6.00 Build 0)  -->
<!DOCTYPE svg PUBLIC "-//W3C//DTD SVG 1.1//EN" "http://www.w3.org/Graphics/SVG/1.1/DTD/svg11.dtd">
<svg version="1.1" id="Ebene_1" xmlns="http://www.w3.org/2000/svg" xmlns:xlink="http://www.w3.org/1999/xlink" x="0px" y="0px"
	 width="425.623px" height="519.375px" viewBox="0 0 425.623 519.375" enable-background="new 0 0 425.623 519.375"
	 xml:space="preserve">
<g>
	<g>
		<defs>
			<rect id="SVGID_1_" y="-3.621" width="426.082" height="536.12"/>
		</defs>
		<clipPath id="SVGID_2_">
			<use xlink:href="#SVGID_1_"  overflow="visible"/>
		</clipPath>
		<rect y="0.003" clip-path="url(#SVGID_2_)" fill="#A5C400" width="425.717" height="425.712"/>
	</g>
	<g>
		<defs>
			<rect id="SVGID_3_" y="-3.621" width="426.082" height="536.12"/>
		</defs>
		<clipPath id="SVGID_4_">
			<use xlink:href="#SVGID_3_"  overflow="visible"/>
		</clipPath>
		<path id="path196" clip-path="url(#SVGID_4_)" fill="#FFFFFF" d="M213.441,365.25v-69.976H110.404v-48.959L193.683,59.57h86.292
			v186.745h23.622v48.959h-23.622v69.976H213.441L213.441,365.25z M213.441,246.315l-0.429-123.225l-55.385,123.225H213.441z"/>
	</g>
	<g>
		<defs>
			<rect id="SVGID_5_" y="-3.621" width="426.082" height="536.12"/>
		</defs>
		<clipPath id="SVGID_6_">
			<use xlink:href="#SVGID_5_"  overflow="visible"/>
		</clipPath>
		<path clip-path="url(#SVGID_6_)" d="M0.009,519.375h425.708V0.003H0.009 M417.204,417.191H8.522V8.511h408.681L417.204,417.191
			L417.204,417.191z"/>
	</g>
	<g>
		<defs>
			<rect id="SVGID_7_" y="-3.621" width="426.082" height="536.12"/>
		</defs>
		<clipPath id="SVGID_8_">
			<use xlink:href="#SVGID_7_"  overflow="visible"/>
		</clipPath>
		<path clip-path="url(#SVGID_8_)" d="M381.254,17.033v3.159h-6.739v21.33h-3.948v-21.33h-6.729v-3.159H381.254z M408.691,41.522
			h-3.959V22.234h-0.115l-6.787,19.288h-3.221l-6.452-19.288h-0.124v19.288h-3.95V17.033h6.279l6.105,18.219h0.115l5.943-18.219
			h6.164L408.691,41.522L408.691,41.522z"/>
	</g>
	<g>
		<defs>
			<rect id="SVGID_9_" y="-3.621" width="426.082" height="536.12"/>
		</defs>
		<clipPath id="SVGID_10_">
			<use xlink:href="#SVGID_9_"  overflow="visible"/>
		</clipPath>
		<polygon clip-path="url(#SVGID_10_)" fill="#FFFFFF" points="27.043,487.452 34.267,487.452 40.905,455.165 41.049,455.165 
			47.98,487.452 54.763,487.452 64.119,447.927 57.639,447.927 51.522,480.243 51.369,480.243 44.812,447.927 37.517,447.927 
			30.801,480.243 30.653,480.243 24.311,447.927 17.826,447.927 		"/>
	</g>
	<g>
		<defs>
			<rect id="SVGID_11_" y="-3.621" width="426.082" height="536.12"/>
		</defs>
		<clipPath id="SVGID_12_">
			<use xlink:href="#SVGID_11_"  overflow="visible"/>
		</clipPath>
		<polygon clip-path="url(#SVGID_12_)" fill="#FFFFFF" points="74.842,487.452 82.065,487.452 88.699,455.165 88.857,455.165 
			95.788,487.452 102.551,487.452 111.927,447.927 105.437,447.927 99.321,480.243 99.163,480.243 92.596,447.927 85.305,447.927 
			78.6,480.243 78.451,480.243 72.109,447.927 65.62,447.927 		"/>
	</g>
	<g>
		<defs>
			<rect id="SVGID_13_" y="-3.621" width="426.082" height="536.12"/>
		</defs>
		<clipPath id="SVGID_14_">
			<use xlink:href="#SVGID_13_"  overflow="visible"/>
		</clipPath>
		<polygon clip-path="url(#SVGID_14_)" fill="#FFFFFF" points="122.63,487.452 129.858,487.452 136.492,455.165 136.641,455.165 
			143.582,487.452 150.354,487.452 159.72,447.927 153.24,447.927 147.114,480.243 146.966,480.243 140.399,447.927 
			133.104,447.927 126.393,480.243 126.245,480.243 119.903,447.927 113.403,447.927 		"/>
	</g>
	<g>
		<defs>
			<rect id="SVGID_15_" y="-3.621" width="426.082" height="536.12"/>
		</defs>
		<clipPath id="SVGID_16_">
			<use xlink:href="#SVGID_15_"  overflow="visible"/>
		</clipPath>
		<rect x="163.21" y="479.648" clip-path="url(#SVGID_16_)" fill="#FFFFFF" width="6.778" height="7.804"/>
	</g>
	<g>
		<defs>
			<rect id="SVGID_17_" y="-3.621" width="426.082" height="536.12"/>
		</defs>
		<clipPath id="SVGID_18_">
			<use xlink:href="#SVGID_17_"  overflow="visible"/>
		</clipPath>
		<path clip-path="url(#SVGID_18_)" fill="#FFFFFF" d="M185.326,467.704c0-9.012,1.107-15.492,7.972-15.492
			c5.751,0,7.223,6.06,7.223,14.744c0,10.181-1.472,16.221-7.223,16.221C186.659,483.177,185.326,475.363,185.326,467.704
			 M179.502,500.432h6.188v-17.466h0.153c1.404,3.384,4.726,5.521,8.259,5.521c10.248,0,12.908-12.539,12.908-21.531
			c0-11.715-3.533-20.055-12.908-20.055c-4.281,0-7.736,2.962-8.551,5.904h-0.148v-4.88h-5.901V500.432L179.502,500.432z"/>
	</g>
	<g>
		<defs>
			<rect id="SVGID_19_" y="-3.621" width="426.082" height="536.12"/>
		</defs>
		<clipPath id="SVGID_20_">
			<use xlink:href="#SVGID_19_"  overflow="visible"/>
		</clipPath>
		<path clip-path="url(#SVGID_20_)" fill="#FFFFFF" d="M219.042,463.563v-1.477c0-2.339,0.729-10.313,7.219-10.313
			c5.455,0,6.864,5.225,6.864,9.652v2.138H219.042z M239.604,468.433v-2.502c0-8.483-1.111-19.028-13.201-19.028
			c-12.154,0-14.083,11.427-14.083,21.319c0,13.564,4.055,20.267,13.718,20.267c10.767,0,13.269-9.808,13.269-14.006h-6.184
			c0,2.942-0.825,9.146-6.721,9.146c-7.584,0-7.584-9.146-7.584-15.194L239.604,468.433L239.604,468.433z"/>
	</g>
	<g>
		<defs>
			<rect id="SVGID_21_" y="-3.621" width="426.082" height="536.12"/>
		</defs>
		<clipPath id="SVGID_22_">
			<use xlink:href="#SVGID_21_"  overflow="visible"/>
		</clipPath>
		<path clip-path="url(#SVGID_22_)" fill="#FFFFFF" d="M258.634,452.212c6.635,0,7.956,7.813,7.956,15.492
			c0,8.091-1.321,14.446-8.032,14.446c-6.175,0-7.151-8.043-7.151-14.446C251.406,458.271,252.882,452.212,258.634,452.212
			 M272.419,447.927h-5.896v5.033h-0.162c-0.807-3.106-4.268-6.059-8.553-6.059c-10.018,0-12.884,10.104-12.884,20.803
			c0,5.234,0.729,19.748,12.232,19.748c3.911,0,7.593-1.994,8.925-5.302h0.152v5.167c0,2.723,0.289,8.839-7.678,8.839
			c-3.24,0-6.06-1.399-6.338-5.004h-6.191c1.016,9.874,10.535,9.874,12.951,9.874c7.976,0,13.439-4.275,13.439-16.076v-37.023
			H272.419z"/>
	</g>
	<g>
		<defs>
			<rect id="SVGID_23_" y="-3.621" width="426.082" height="536.12"/>
		</defs>
		<clipPath id="SVGID_24_">
			<use xlink:href="#SVGID_23_"  overflow="visible"/>
		</clipPath>
		<path clip-path="url(#SVGID_24_)" fill="#FFFFFF" d="M280.922,487.452h6.185v-39.517h-6.185V487.452z M280.922,441.897h6.185
			v-7.096h-6.185V441.897z"/>
	</g>
	<g>
		<defs>
			<rect id="SVGID_25_" y="-3.621" width="426.082" height="536.12"/>
		</defs>
		<clipPath id="SVGID_26_">
			<use xlink:href="#SVGID_25_"  overflow="visible"/>
		</clipPath>
		<rect x="296.97" y="479.648" clip-path="url(#SVGID_26_)" fill="#FFFFFF" width="6.787" height="7.804"/>
	</g>
	<g>
		<defs>
			<rect id="SVGID_27_" y="-3.621" width="426.082" height="536.12"/>
		</defs>
		<clipPath id="SVGID_28_">
			<use xlink:href="#SVGID_27_"  overflow="visible"/>
		</clipPath>
		<path clip-path="url(#SVGID_28_)" fill="#FFFFFF" d="M313.641,487.452h6.202v-39.517h-6.202V487.452z M313.641,441.897h6.202
			v-7.096h-6.202V441.897z"/>
	</g>
	<g>
		<defs>
			<rect id="SVGID_29_" y="-3.621" width="426.082" height="536.12"/>
		</defs>
		<clipPath id="SVGID_30_">
			<use xlink:href="#SVGID_29_"  overflow="visible"/>
		</clipPath>
		<path clip-path="url(#SVGID_30_)" fill="#FFFFFF" d="M328.328,487.452h6.174v-27.273c0-5.752,4.506-7.967,7.822-7.967
			c5.599,0,5.829,4.946,5.829,7.967v27.273h6.191v-28.021c0-4.63,0-12.528-10.411-12.528c-3.814,0-7.946,2.069-9.566,5.693h-0.153
			v-4.669h-5.886V487.452z"/>
	</g>
	<g>
		<defs>
			<rect id="SVGID_31_" y="-3.621" width="426.082" height="536.12"/>
		</defs>
		<clipPath id="SVGID_32_">
			<use xlink:href="#SVGID_31_"  overflow="visible"/>
		</clipPath>
		<path clip-path="url(#SVGID_32_)" fill="#FFFFFF" d="M364.306,487.452h6.223v-34.646h6.758v-4.88h-6.758v-4.63
			c0-2.731,1.304-3.758,3.969-3.758h2.866v-5.313h-4.496c-5.982,0-8.562,3.098-8.562,9.069v4.63h-5.743v4.88h5.743V487.452z"/>
	</g>
	<g>
		<defs>
			<rect id="SVGID_33_" y="-3.621" width="426.082" height="536.12"/>
		</defs>
		<clipPath id="SVGID_34_">
			<use xlink:href="#SVGID_33_"  overflow="visible"/>
		</clipPath>
		<path clip-path="url(#SVGID_34_)" fill="#FFFFFF" d="M379.634,467.704c0,11.12,2.818,20.783,14.236,20.783
			c11.36,0,14.227-9.663,14.227-20.783c0-11.149-2.8-20.803-14.227-20.803C382.53,446.901,379.634,456.555,379.634,467.704
			 M393.727,483.637c-6.347,0-7.583-7.4-7.583-15.933c0-8.57,1.332-15.934,7.583-15.934c6.635,0,7.899,7.362,7.899,15.934
			C401.626,476.235,400.293,483.637,393.727,483.637"/>
	</g>
</g>
</svg>
